<svg width="811" height="540" viewBox="0 0 811 540" fill="none" xmlns="http://www.w3.org/2000/svg">
<g clip-path="url(#clip0_30_416)">
<path opacity="0.18" d="M42.5 204.35C62.91 178.64 89.62 158.02 107.23 130.35C116.44 115.88 123.04 99.67 133.62 86.21C151.42 63.67 179.54 50.74 208.04 47.36C236.54 43.98 265.53 49.43 292.79 58.5C302.29 61.66 311.79 65.3 321.73 66.4C340.12 68.4 358.25 61.71 375.37 54.68C448.45 24.62 526.06 -14.21 602.65 5.24001C658.54 19.43 701.9 62.24 742.34 103.38C766.79 128.23 792 154.3 803.03 187.38C812.94 217.09 810.33 249.32 807.62 280.52L796.28 410.99C796.188 413.994 795.583 416.96 794.49 419.76C791.77 425.65 785.21 428.63 779.07 430.76C744.21 442.64 706.46 441.67 669.64 440.57L112.13 423.88C88.35 423.17 34.9 429.39 14.5 415.24C14.5 415.24 4.71998 376.24 2.20998 359.33C-5.86002 305.16 8.29998 247.43 42.5 204.35Z" fill="#68E1FD"/>
<path opacity="0.21" d="M802.76 412.25C802.76 445.909 789.389 478.189 765.589 501.989C741.789 525.789 709.509 539.16 675.85 539.16H141.4C107.743 539.157 75.4656 525.785 51.6675 501.985C27.8695 478.185 14.5 445.907 14.5 412.25H802.76Z" fill="url(#paint0_linear_30_416)"/>
<path d="M707.59 251.37C705.01 247.13 702.44 241.61 705.29 237.56C707.45 234.49 711.94 233.72 713.97 230.56C703.64 229.56 697.97 218.09 695.78 207.95C692.575 192.877 692.451 177.312 695.413 162.189C698.376 147.067 704.365 132.7 713.02 119.95C713.92 118.65 715.02 117.24 716.65 117.2C718.58 117.2 719.84 119.13 720.65 120.85C729.183 137.909 736.729 155.445 743.25 173.37C743.84 175 744.41 176.87 743.61 178.37C742.897 179.432 741.884 180.257 740.7 180.74L729.45 186.63L746.72 185.99C747.87 193.9 749.03 201.89 748.42 209.86C748.05 214.63 745.42 220.65 740.64 219.93C744.55 220.06 746.06 225 746.51 228.93L752.51 280.93C752.71 282.68 752.83 284.67 751.62 285.93C750.57 287.02 748.9 287.15 747.39 287.22C737.07 287.68 731.98 289.48 725.8 281.22C719.12 272.37 715.47 259.25 707.59 251.37Z" fill="#68E1FD"/>
<path d="M707.59 251.37C705.01 247.13 702.44 241.61 705.29 237.56C707.45 234.49 711.94 233.72 713.97 230.56C703.64 229.56 697.97 218.09 695.78 207.95C692.575 192.877 692.451 177.312 695.413 162.189C698.376 147.067 704.365 132.7 713.02 119.95C713.92 118.65 715.02 117.24 716.65 117.2C718.58 117.2 719.84 119.13 720.65 120.85C729.183 137.909 736.729 155.445 743.25 173.37C743.84 175 744.41 176.87 743.61 178.37C742.897 179.432 741.884 180.257 740.7 180.74L729.45 186.63L746.72 185.99C747.87 193.9 749.03 201.89 748.42 209.86C748.05 214.63 745.42 220.65 740.64 219.93C744.55 220.06 746.06 225 746.51 228.93L752.51 280.93C752.71 282.68 752.83 284.67 751.62 285.93C750.57 287.02 748.9 287.15 747.39 287.22C737.07 287.68 731.98 289.48 725.8 281.22C719.12 272.37 715.47 259.25 707.59 251.37Z" fill="url(#paint1_linear_30_416)"/>
<path d="M796.89 109.46C803.1 126.63 803.21 145.36 802.39 163.6C802.13 169.6 801.72 175.76 799.09 181.16C796.46 186.56 791.09 191.02 785.09 190.74L796.42 196.74C789.68 213.74 782.87 231.05 780.89 249.26C780.15 256.04 780.08 262.93 778.35 269.52C776.248 277.4 771.864 284.483 765.75 289.88C762.24 292.97 757.75 295.56 753.11 294.73C746 293.45 742.84 285.19 741.19 278.15C737.32 261.54 732.57 242.36 733.28 225.2C733.86 211.12 740.16 195.84 745.59 182.95C751.542 168.818 758.991 155.365 767.81 142.82C770.38 139.13 797.34 110.71 796.89 109.46Z" fill="#68E1FD"/>
<path d="M796.89 109.46C803.1 126.63 803.21 145.36 802.39 163.6C802.13 169.6 801.72 175.76 799.09 181.16C796.46 186.56 791.09 191.02 785.09 190.74L796.42 196.74C789.68 213.74 782.87 231.05 780.89 249.26C780.15 256.04 780.08 262.93 778.35 269.52C776.248 277.4 771.864 284.483 765.75 289.88C762.24 292.97 757.75 295.56 753.11 294.73C746 293.45 742.84 285.19 741.19 278.15C737.32 261.54 732.57 242.36 733.28 225.2C733.86 211.12 740.16 195.84 745.59 182.95C751.542 168.818 758.991 155.365 767.81 142.82C770.38 139.13 797.34 110.71 796.89 109.46Z" fill="url(#paint2_linear_30_416)"/>
<path d="M790.67 221.94C804.04 208.73 784.86 188.1 803.52 185.87C790.89 205.87 813.39 239.41 790.73 246.25C791.36 251.19 785.95 254.4 781.73 256.99C776.349 260.307 771.683 264.665 768.007 269.807C764.33 274.95 761.717 280.775 760.32 286.94C761.65 280.94 760.82 277.46 763.84 271.48C766.46 266.31 767.84 261.32 769.76 255.61C774.013 242.912 781.174 231.382 790.67 221.94Z" fill="#68E1FD"/>
<path d="M790.67 221.94C804.04 208.73 784.86 188.1 803.52 185.87C790.89 205.87 813.39 239.41 790.73 246.25C791.36 251.19 785.95 254.4 781.73 256.99C776.349 260.307 771.683 264.665 768.007 269.807C764.33 274.95 761.717 280.775 760.32 286.94C761.65 280.94 760.82 277.46 763.84 271.48C766.46 266.31 767.84 261.32 769.76 255.61C774.013 242.912 781.174 231.382 790.67 221.94Z" fill="url(#paint3_linear_30_416)"/>
<path d="M711.3 308.58H792.59V408.52C792.59 417.007 789.219 425.146 783.217 431.147C777.216 437.149 769.077 440.52 760.59 440.52H743.33C734.843 440.52 726.704 437.149 720.703 431.147C714.701 425.146 711.33 417.007 711.33 408.52V308.58H711.3Z" fill="#68E1FD"/>
<path d="M711.3 308.58H792.59V408.52C792.59 417.007 789.219 425.146 783.217 431.147C777.216 437.149 769.077 440.52 760.59 440.52H743.33C734.843 440.52 726.704 437.149 720.703 431.147C714.701 425.146 711.33 417.007 711.33 408.52V308.58H711.3Z" fill="url(#paint4_linear_30_416)"/>
<path d="M620.1 173.9H167.51C132.871 173.9 104.79 201.981 104.79 236.62V396.39C104.79 431.029 132.871 459.11 167.51 459.11H620.1C654.739 459.11 682.82 431.029 682.82 396.39V236.62C682.82 201.981 654.739 173.9 620.1 173.9Z" fill="#68E1FD"/>
<path d="M620.1 173.9H167.51C132.871 173.9 104.79 201.981 104.79 236.62V396.39C104.79 431.029 132.871 459.11 167.51 459.11H620.1C654.739 459.11 682.82 431.029 682.82 396.39V236.62C682.82 201.981 654.739 173.9 620.1 173.9Z" fill="url(#paint5_linear_30_416)"/>
<path d="M592.95 195.13H187.63C154.94 195.13 128.44 221.63 128.44 254.32V416.32C128.44 449.01 154.94 475.51 187.63 475.51H592.95C625.64 475.51 652.14 449.01 652.14 416.32V254.32C652.14 221.63 625.64 195.13 592.95 195.13Z" fill="url(#paint6_linear_30_416)"/>
<path opacity="0.19" d="M372.68 272.66C371.86 278.24 376.76 282.91 381.46 286.02C389.659 291.433 398.678 295.485 408.17 298.02C410.23 298.57 412.46 299.13 413.84 300.77C416.72 304.2 413.78 309.58 409.99 311.97C406.2 314.36 401.48 315.5 398.58 318.92C394.41 323.83 395.05 332.28 389.52 335.59C387.931 336.42 386.208 336.962 384.43 337.19L364.84 340.88C406.38 343.371 448.019 343.779 489.6 342.1C486.393 331.833 483.19 321.563 479.99 311.29C475.55 297.06 470.59 282.02 459.15 272.47C453.15 267.47 445.87 264.4 438.55 261.77C428.05 257.99 406.04 248.11 394.85 251.35C388.94 253.08 373.6 266.43 372.68 272.66Z" fill="url(#paint7_linear_30_416)"/>
<path opacity="0.19" d="M220.82 176.1C219.239 177.494 218.115 179.332 217.596 181.375C217.077 183.418 217.186 185.57 217.91 187.55C218.71 189.62 220.22 191.7 219.63 193.84C219.11 195.73 217.14 196.79 215.4 197.7C192.32 209.7 176.83 232.17 162.29 253.75C158.53 259.33 154.65 265.26 154.23 271.97C153.61 281.87 160.62 290.55 168 297.16C175.38 303.77 183.87 309.84 188 318.88C192.13 327.92 189.2 341.06 179.62 343.62C177.74 344.12 175.72 344.19 173.99 345.09C172.26 345.99 170.99 348.17 171.89 349.88C172.74 351.42 174.82 351.67 176.59 351.72C233.543 353.527 290.513 354.43 347.5 354.43C351.43 354.43 355.5 354.38 359 352.51C360.545 351.751 361.787 350.488 362.52 348.93C364.87 343.34 357.52 338.18 357.16 332.12C356.74 325.75 363.63 321.77 367.54 316.72C373.27 309.32 372.54 298.49 368.34 290.12C364.14 281.75 357.19 275.18 350.61 268.52C332.231 249.894 316.119 229.16 302.61 206.75C301.16 204.34 299.68 201.6 300.28 198.84C300.88 196.08 303.28 194.18 303.49 191.5C303.534 189.753 302.976 188.044 301.91 186.66C295.03 176.52 280.37 176.8 268.12 177.06C258.892 177.249 249.661 176.821 240.49 175.78C234.41 175.09 226.04 171.65 220.82 176.1Z" fill="url(#paint8_linear_30_416)"/>
<path opacity="0.19" d="M484.96 178.05C492.6 177.41 500.28 177.14 507.96 177.24C515.41 177.34 538.3 173.65 547.89 173.9C554.89 174.09 535.15 195.78 538.89 201.74C544.89 211.3 556.52 215.39 565.89 221.74C576.83 229.185 585.018 240.022 589.19 252.58C592.44 262.46 593.06 273 593.51 283.39C593.82 290.55 594.01 298.02 591 304.52C587.81 311.4 581.07 317.32 581.77 324.87C582.04 327.77 583.42 330.43 584.09 333.27C584.76 336.11 584.46 339.53 582.14 341.27C581.074 341.966 579.875 342.436 578.62 342.65C553.76 348.47 527.83 344.65 502.37 342.74C477.63 340.88 452.79 340.83 427.97 340.74C433.732 330.295 438.667 319.416 442.73 308.2C443.73 305.37 444.73 302.42 444.55 299.42C444.28 295.31 441.87 291.69 439.69 288.19C431.86 275.66 425.99 261.44 425.85 246.67C425.7 230.89 432.72 216.02 446.09 207.42C451.69 203.82 456.56 199.76 461.88 195.84C464.88 193.6 488.65 203.55 491.44 201.01C494.23 198.47 482.13 178.29 484.96 178.05Z" fill="url(#paint9_linear_30_416)"/>
<path d="M355.48 287.43C355.29 288.05 355.07 288.66 354.81 289.3C349.28 303.23 327.86 322.88 327.86 322.88L327.12 342.51C305.81 354.88 206.17 344.88 206.17 344.88C206.17 344.88 201.31 329.23 200.24 328.7C199.17 328.17 178.65 308.35 171.24 297.98C170.26 296.714 169.444 295.33 168.81 293.86C165.98 286.22 179.66 269.35 195.11 232.77C210.56 196.19 244.01 201.3 244.01 201.3C244.01 201.3 307.74 200.08 322.74 209.73C337.74 219.38 359.66 273.48 355.48 287.43Z" fill="#68E1FD"/>
<path opacity="0.4" d="M351.04 296.41C345.85 304.5 337.85 313.06 332.73 318.2C329.598 321.338 327.762 325.54 327.59 329.97C327.446 334.049 325.886 337.95 323.178 341.003C320.469 344.056 316.782 346.07 312.75 346.7C286.66 350.7 239.6 347.7 217.81 345.89C214.427 345.608 211.197 344.356 208.508 342.285C205.819 340.213 203.785 337.409 202.65 334.21C201.65 331.3 200.65 328.88 200.24 328.68C199.55 328.33 187.98 317.28 179.02 307.36C176.606 304.7 175.063 301.365 174.597 297.803C174.13 294.242 174.763 290.622 176.41 287.43C181.32 277.95 188.01 265.36 195.06 248.66C209.06 215.41 238.06 216.66 243.17 217.11C243.8 217.17 244.41 217.19 245.04 217.19C253.48 217.08 308.84 216.71 322.69 225.62C333.22 232.39 347.17 261.04 353.11 282.36C353.774 284.716 353.933 287.185 353.577 289.606C353.22 292.028 352.355 294.346 351.04 296.41Z" fill="url(#paint10_linear_30_416)"/>
<path d="M461.44 195.39C471.031 193.019 481.155 194.191 489.95 198.69C508.47 208.16 540.56 224.69 549.7 230.21C562.78 238.11 581.53 286.79 582.07 294.34C582.61 301.89 583.77 311.68 571.37 314.09C558.97 316.5 506.26 330.47 506.26 330.47L496.86 314.09L439.42 315.44L433.23 286.94C433.23 286.94 378.94 252.67 378.42 246.19C377.9 239.71 372.04 226.88 398.25 215.06C415.56 207.29 444.04 199.68 461.44 195.39Z" fill="white"/>
<path opacity="0.26" d="M448.32 208.88L405.46 223.88C400.58 225.59 394.91 228.21 394.21 233.34C394.07 235.08 394.305 236.829 394.9 238.47C401.12 258.53 425.13 271.07 445.14 264.7C438.127 256.54 431.127 248.377 424.14 240.21C435.127 237.748 446.304 236.232 457.55 235.68C458.321 250.239 455.968 264.795 450.65 278.37C446.77 288.25 441.23 298.27 442.74 308.77C443.382 312.9 445.085 316.793 447.683 320.068C450.28 323.342 453.684 325.886 457.56 327.45C463.93 329.94 471 329.55 477.82 329.14L521.38 326.46C523.8 326.31 526.54 325.99 527.96 324.03C528.79 322.618 529.161 320.982 529.02 319.35C529.18 297.9 529.29 283.43 535.23 262.81C539.45 284.73 539.8 278.25 545.01 289.1C545.75 290.64 550.78 287.58 550.17 289.17C549.488 290.491 548.352 291.521 546.97 292.07C542.885 294.209 538.538 295.806 534.04 296.82C534.16 299.53 536.65 301.66 539.28 302.29C541.91 302.92 544.68 302.38 547.33 301.85C551.77 300.97 556.33 300.05 560.2 297.78C564.07 295.51 567.37 291.63 567.65 287.12C568.02 281.33 563.65 276.45 559.58 272.32C553.49 266.14 552.84 250.73 547.84 244.32C538.78 232.77 504.04 212.57 491.36 206.96C476.69 200.48 463.09 203.74 448.32 208.88Z" fill="#68E1FD"/>
<path d="M695.94 396.98V427.51C695.94 441.947 690.206 455.792 679.998 466.001C669.791 476.211 655.947 481.947 641.51 481.95H139.18C124.742 481.95 110.895 476.214 100.685 466.005C90.4756 455.795 84.74 441.948 84.74 427.51V396.98C84.7361 389.83 86.1416 382.75 88.8762 376.144C91.6108 369.537 95.6208 363.535 100.677 358.48C105.733 353.425 111.736 349.416 118.343 346.682C124.949 343.949 132.03 342.545 139.18 342.55H641.51C648.659 342.546 655.739 343.951 662.344 346.685C668.95 349.419 674.952 353.428 680.007 358.483C685.062 363.538 689.071 369.54 691.805 376.146C694.539 382.751 695.944 389.831 695.94 396.98Z" fill="#68E1FD"/>
<path d="M695.94 396.98V427.51C695.94 441.947 690.206 455.792 679.998 466.001C669.791 476.211 655.947 481.947 641.51 481.95H139.18C124.742 481.95 110.895 476.214 100.685 466.005C90.4756 455.795 84.74 441.948 84.74 427.51V396.98C84.7361 389.83 86.1416 382.75 88.8762 376.144C91.6108 369.537 95.6208 363.535 100.677 358.48C105.733 353.425 111.736 349.416 118.343 346.682C124.949 343.949 132.03 342.545 139.18 342.55H641.51C648.659 342.546 655.739 343.951 662.344 346.685C668.95 349.419 674.952 353.428 680.007 358.483C685.062 363.538 689.071 369.54 691.805 376.146C694.539 382.751 695.944 389.831 695.94 396.98Z" fill="url(#paint11_linear_30_416)"/>
<path d="M686.66 366.56C681.677 373.954 674.954 380.01 667.081 384.195C659.207 388.38 650.426 390.566 641.51 390.56H139.18C130.263 390.565 121.48 388.379 113.606 384.194C105.731 380.009 99.0055 373.954 94.02 366.56C99.0042 359.165 105.73 353.109 113.605 348.924C121.479 344.738 130.262 342.553 139.18 342.56H641.51C650.427 342.552 659.208 344.737 667.082 348.922C674.955 353.108 681.679 359.165 686.66 366.56Z" fill="#68E1FD"/>
<path d="M686.66 366.56C681.677 373.954 674.954 380.01 667.081 384.195C659.207 388.38 650.426 390.566 641.51 390.56H139.18C130.263 390.565 121.48 388.379 113.606 384.194C105.731 380.009 99.0055 373.954 94.02 366.56C99.0042 359.165 105.73 353.109 113.605 348.924C121.479 344.738 130.262 342.553 139.18 342.56H641.51C650.427 342.552 659.208 344.737 667.082 348.922C674.955 353.108 681.679 359.165 686.66 366.56Z" fill="url(#paint12_linear_30_416)"/>
<path opacity="0.19" d="M431.35 404.33C427.79 424.71 424.35 446.17 431.2 465.68C432.2 468.61 434.13 471.91 437.2 471.97C439.47 471.97 441.34 470.21 442.68 468.38C450.95 457.13 449.68 441.82 449.28 427.87C448.66 404.42 453 378.45 471.16 363.59C478.22 357.82 488.53 354.26 496.39 358.87C505.01 363.93 506.26 375.66 506.54 385.65C507 401.73 507.457 417.817 507.91 433.91C508.28 447.16 508.96 461.34 516.91 471.99C521.98 478.83 531.91 483.54 538.98 478.78C543.81 475.52 545.35 469.2 546.22 463.45C550.867 432.282 546.954 400.436 534.9 371.32C530.13 359.83 523.59 348.32 512.83 342.07C506.99 338.69 500.27 337.07 493.57 336.28C475.792 334.175 457.787 337.303 441.76 345.28C430.63 350.85 437.51 357.34 438.03 366.16C438.7 377.93 433.38 392.7 431.35 404.33Z" fill="url(#paint13_linear_30_416)"/>
<path opacity="0.19" d="M240.57 478.45C242.09 475.99 242.05 472.91 241.99 470.02C241.543 446.484 243.217 422.956 246.99 399.72C248.4 391.05 250.22 382.13 255.3 374.97C260.38 367.81 269.56 362.88 278.04 365.23C280.36 365.89 282.68 367.23 283.6 369.45C284.04 370.736 284.234 372.093 284.17 373.45C284.477 402.783 284.27 432.117 283.55 461.45C283.41 467.11 283.39 473.24 286.79 477.76C292.48 485.34 304.15 484.19 313.09 481.07C316.23 479.97 319.45 478.63 321.59 476.07C324.17 472.97 324.69 468.7 325.07 464.69C328.339 430.186 329.291 395.501 327.92 360.87C327.82 358.34 327.68 355.72 326.49 353.49C324.01 348.86 318.1 347.56 312.91 346.75C291.97 343.5 270.74 340.23 249.66 342.39C244.76 342.9 239.72 343.75 235.61 346.46C231.74 349.01 229.04 352.96 226.55 356.86C214.92 375.07 205.27 394.99 202.15 416.37C199.62 433.68 201.65 452.3 209.96 467.88C214.17 475.88 232.83 490.88 240.57 478.45Z" fill="url(#paint14_linear_30_416)"/>
<path d="M105.51 306.07H90C77.3361 306.07 67.07 316.336 67.07 329V344.51C67.07 357.174 77.3361 367.44 90 367.44H105.51C118.174 367.44 128.44 357.174 128.44 344.51V329C128.44 316.336 118.174 306.07 105.51 306.07Z" fill="#68E1FD"/>
<path d="M690.58 306.07H675.07C662.406 306.07 652.14 316.336 652.14 329V344.51C652.14 357.174 662.406 367.44 675.07 367.44H690.58C703.244 367.44 713.51 357.174 713.51 344.51V329C713.51 316.336 703.244 306.07 690.58 306.07Z" fill="#68E1FD"/>
<path d="M105.51 306.07H90C77.3361 306.07 67.07 316.336 67.07 329V344.51C67.07 357.174 77.3361 367.44 90 367.44H105.51C118.174 367.44 128.44 357.174 128.44 344.51V329C128.44 316.336 118.174 306.07 105.51 306.07Z" fill="url(#paint15_linear_30_416)"/>
<path d="M690.58 306.07H675.07C662.406 306.07 652.14 316.336 652.14 329V344.51C652.14 357.174 662.406 367.44 675.07 367.44H690.58C703.244 367.44 713.51 357.174 713.51 344.51V329C713.51 316.336 703.244 306.07 690.58 306.07Z" fill="url(#paint16_linear_30_416)"/>
<path d="M240.7 178.61C240.7 178.61 241.13 222.03 264.22 225.25C287.31 228.47 296.8 202.58 299.56 183.1C302.32 163.62 278.3 132.1 254.13 148.28C238.84 158.48 240.7 178.61 240.7 178.61Z" fill="url(#paint17_linear_30_416)"/>
<path d="M242.53 195.14C240.88 185.47 239.27 174.99 242.3 165.66C244.11 160.08 247.41 154.17 253.11 152.74C260.73 150.83 267.4 157.74 274.66 160.74C281.92 163.74 291.19 163.15 296.48 169.01C298.9 171.68 300.01 175.26 301.04 178.72C302.882 170.956 301.918 162.792 298.32 155.67C299.744 157.029 301.642 157.779 303.61 157.76C303.71 151.87 300.61 146.35 296.75 141.92C288.28 132.23 274.98 126.38 262.31 128.64C246 131.54 242.77 143.93 236.65 156.39C230.42 169.09 233.8 180.61 242.53 195.14Z" fill="#3F3D56"/>
<path d="M254.36 220.58C254.36 220.58 255.36 244.04 267.71 242.14C280.06 240.24 282.4 220.58 282.4 220.58C278.236 223.317 273.363 224.776 268.38 224.776C263.397 224.776 258.523 223.317 254.36 220.58Z" fill="url(#paint18_linear_30_416)"/>
<path d="M476.12 164.18C476.12 164.18 476.54 207.6 499.64 210.82C522.74 214.04 532.21 188.15 534.98 168.67C537.75 149.19 513.71 117.67 489.54 133.85C474.26 144.05 476.12 164.18 476.12 164.18Z" fill="url(#paint19_linear_30_416)"/>
<path d="M489.78 206.15C489.78 206.15 490.78 229.61 503.13 227.71C515.48 225.81 517.81 206.15 517.81 206.15C513.649 208.888 508.776 210.347 503.795 210.347C498.814 210.347 493.942 208.888 489.78 206.15Z" fill="url(#paint20_linear_30_416)"/>
<path d="M216.58 308.09C216.58 308.09 196.8 320.18 200.23 328.68C203.66 337.18 221.94 321.63 222.74 319.12C223.54 316.61 229.71 305.18 216.58 308.09Z" fill="url(#paint21_linear_30_416)"/>
<path d="M231.81 327.65C231.81 327.65 221.67 329.97 216.58 325.17C213.049 322.018 209.043 319.443 204.71 317.54L218.71 304.54C218.71 304.54 232.15 297.28 239.39 296.62C246.63 295.96 249.84 299.62 249.84 299.62C249.84 299.62 243.41 307.31 239.39 306.07C235.37 304.83 230.39 309.86 230.39 309.86C230.39 309.86 228.39 320.07 231.88 320.86C235.37 321.65 242.55 325.96 242.55 325.96C242.55 325.96 247.04 330.13 231.81 327.65Z" fill="url(#paint22_linear_30_416)"/>
<path d="M311.11 302.29C311.11 302.29 330.89 314.39 327.45 322.88C324.01 331.37 305.75 315.88 304.95 313.33C304.15 310.78 297.98 299.39 311.11 302.29Z" fill="url(#paint23_linear_30_416)"/>
<path d="M295.88 321.88C295.88 321.88 306.01 324.2 311.11 319.4C314.642 316.248 318.648 313.67 322.98 311.76L308.98 298.76C308.98 298.76 295.54 291.5 288.3 290.84C281.06 290.18 277.85 293.84 277.85 293.84C277.85 293.84 284.28 301.53 288.3 300.29C292.32 299.05 297.3 304.08 297.3 304.08C297.3 304.08 299.3 314.29 295.81 315.08C292.32 315.87 285.14 320.18 285.14 320.18C285.14 320.18 280.65 324.34 295.88 321.88Z" fill="url(#paint24_linear_30_416)"/>
<path d="M244.45 304.56C244.45 304.56 248.2 307.04 256.77 306.07C265.34 305.1 276.48 303.07 277.88 301.42C279.204 300.1 280.73 299 282.4 298.16C282.4 298.16 292.4 295.27 297.4 304.07C302.4 312.87 293.32 316 293.32 316C293.32 316 288.94 323.36 277.91 323.14C266.88 322.92 242.51 325.99 242.51 325.99C242.51 325.99 225.51 318.92 227.29 314.09C229.07 309.26 232.12 303.05 244.45 304.56Z" fill="url(#paint25_linear_30_416)"/>
<path d="M239.29 312.5C239.29 312.5 229.82 317 233.29 322.65C236.76 328.3 247.49 325.4 247.49 325.4C247.49 325.4 272.29 322.7 277.91 323.14C283.53 323.58 297.1 318.73 297.75 312.5C298.4 306.27 294.58 302.1 282.43 306.71C270.28 311.32 263.17 314.71 254.16 313.31C249.25 312.479 244.261 312.207 239.29 312.5Z" fill="url(#paint26_linear_30_416)"/>
<path d="M218.68 304.56L204.68 281.63C204.68 281.63 222.34 254.88 224.04 249.44C225.74 244 239.38 296.64 239.38 296.64C239.38 296.64 220.78 301.03 218.68 304.56Z" fill="url(#paint27_linear_30_416)"/>
<path d="M311.11 302.29L325.11 274.86L313.04 249.05L303.64 296.05C303.64 296.05 309.71 296.28 311.11 302.29Z" fill="url(#paint28_linear_30_416)"/>
<path d="M189.78 334.97C189.78 334.97 198.78 320.46 231.78 327.65C264.78 334.84 290.55 336.32 297.78 331.16C305.01 326 308.96 319.99 327.44 322.88C347.27 325.99 345.83 336.66 350.65 353.56C356.04 372.3 339.04 457.14 339.04 457.14H309.56C309.56 457.14 310.23 353.93 294.82 350.92C284.97 348.99 265.12 348.79 254.36 348.61C248.02 348.5 238.9 357.39 236.63 363.31C230.01 380.61 218.44 417.95 226.57 450.82L197.84 453.37C197.84 453.37 167.57 393.88 189.78 334.97Z" fill="#3F3D56"/>
<path d="M197.84 453.37L201.71 472.7C201.71 472.7 213.03 476.24 218.71 469.33C224.39 462.42 222.04 451.22 222.04 451.22L197.84 453.37Z" fill="url(#paint29_linear_30_416)"/>
<path d="M191.04 475.31L199.7 462.41C199.7 462.41 202.62 474.73 222.08 461.66L222.55 456.22C222.55 456.22 223.48 455.37 225.48 459.11C227.48 462.85 229.04 475.88 229.04 475.88C229.04 475.88 227.83 484.32 223.81 486.93C221.04 488.73 208.37 498.31 200.81 504.06C198.683 505.682 196.194 506.763 193.557 507.211C190.92 507.659 188.213 507.459 185.67 506.63C181.58 505.27 180.87 506.76 180.81 502.78C180.68 494.41 183.92 481.88 191.04 475.31Z" fill="#68E1FD"/>
<path d="M334.62 457.14L331.85 471.01C331.596 472.351 331.075 473.627 330.318 474.763C329.561 475.899 328.584 476.871 327.444 477.622C326.304 478.373 325.025 478.887 323.683 479.134C322.341 479.381 320.962 479.356 319.63 479.06C317.173 478.518 314.965 477.179 313.35 475.25C307.7 468.33 310 457.14 310 457.14H334.62Z" fill="url(#paint30_linear_30_416)"/>
<path d="M332.38 468.33C332.38 468.33 329.46 480.65 310 467.58L309.54 462.14C309.54 462.14 308.61 461.28 306.6 465.03C304.59 468.78 303.04 481.88 303.04 481.88C303.04 481.88 304.25 490.32 308.27 492.88C311.56 495.02 341.76 524.81 353.46 509.41C354.773 507.775 355.502 505.747 355.53 503.65C355.61 495.25 332.38 468.33 332.38 468.33Z" fill="#68E1FD"/>
<path d="M191.04 475.31L199.7 462.41C199.7 462.41 202.62 474.73 222.08 461.66L222.55 456.22C222.55 456.22 223.48 455.37 225.48 459.11C227.48 462.85 229.04 475.88 229.04 475.88C229.04 475.88 227.83 484.32 223.81 486.93C221.04 488.73 208.37 498.31 200.81 504.06C198.683 505.682 196.194 506.763 193.557 507.211C190.92 507.659 188.213 507.459 185.67 506.63C181.58 505.27 180.87 506.76 180.81 502.78C180.68 494.41 183.92 481.88 191.04 475.31Z" fill="url(#paint31_linear_30_416)"/>
<path d="M332.38 468.33C332.38 468.33 329.46 480.65 310 467.58L309.54 462.14C309.54 462.14 308.61 461.28 306.6 465.03C304.59 468.78 303.04 481.88 303.04 481.88C303.04 481.88 304.25 490.32 308.27 492.88C311.56 495.02 341.76 524.81 353.46 509.41C354.773 507.775 355.502 505.747 355.53 503.65C355.61 495.25 332.38 468.33 332.38 468.33Z" fill="url(#paint32_linear_30_416)"/>
<path d="M558.61 462.71L556.04 475.82C555.8 477.088 555.308 478.294 554.593 479.368C553.877 480.442 552.954 481.361 551.876 482.071C550.799 482.78 549.59 483.266 548.321 483.5C547.052 483.734 545.749 483.71 544.49 483.43C542.17 482.917 540.086 481.651 538.56 479.83C533.21 473.29 535.39 462.71 535.39 462.71H558.61Z" fill="url(#paint33_linear_30_416)"/>
<path d="M556.49 473.29C556.49 473.29 553.73 484.93 535.34 472.58L534.9 467.44C534.9 467.44 534.02 466.63 532.13 470.17C530.24 473.71 528.72 486.05 528.72 486.05C528.72 486.05 529.86 494.05 533.66 496.5C536.77 498.5 565.31 526.67 576.36 512.12C577.616 510.581 578.32 508.666 578.36 506.68C578.44 498.73 556.49 473.29 556.49 473.29Z" fill="#68E1FD"/>
<path d="M410.04 440.58L412.67 453.69C412.91 454.956 413.402 456.162 414.117 457.234C414.831 458.307 415.754 459.225 416.831 459.934C417.907 460.642 419.115 461.128 420.383 461.361C421.65 461.594 422.952 461.57 424.21 461.29C426.531 460.78 428.617 459.514 430.14 457.69C435.49 451.15 433.31 440.58 433.31 440.58H410.04Z" fill="url(#paint34_linear_30_416)"/>
<path d="M412.17 451.16C412.17 451.16 414.93 462.8 433.32 450.44L433.76 445.3C433.76 445.3 434.64 444.49 436.53 448.03C438.42 451.57 439.94 463.88 439.94 463.88C439.94 463.88 438.8 471.88 435.01 474.32C431.89 476.32 403.35 504.5 392.3 489.95C391.048 488.409 390.344 486.495 390.3 484.51C390.22 476.59 412.17 451.16 412.17 451.16Z" fill="#68E1FD"/>
<path d="M556.49 473.29C556.49 473.29 553.73 484.93 535.34 472.58L534.9 467.44C534.9 467.44 534.02 466.63 532.13 470.17C530.24 473.71 528.72 486.05 528.72 486.05C528.72 486.05 529.86 494.05 533.66 496.5C536.77 498.5 565.31 526.67 576.36 512.12C577.616 510.581 578.32 508.666 578.36 506.68C578.44 498.73 556.49 473.29 556.49 473.29Z" fill="url(#paint35_linear_30_416)"/>
<path d="M412.17 451.16C412.17 451.16 414.93 462.8 433.32 450.44L433.76 445.3C433.76 445.3 434.64 444.49 436.53 448.03C438.42 451.57 439.94 463.88 439.94 463.88C439.94 463.88 438.8 471.88 435.01 474.32C431.89 476.32 403.35 504.5 392.3 489.95C391.048 488.409 390.344 486.495 390.3 484.51C390.22 476.59 412.17 451.16 412.17 451.16Z" fill="url(#paint36_linear_30_416)"/>
<path d="M706.14 285.7H798.58V313.31H706.14V285.7Z" fill="#68E1FD"/>
<path d="M706.44 285.7H798.88V313.31H706.44V285.7Z" fill="url(#paint37_linear_30_416)"/>
<path d="M450.73 315.04C450.73 315.04 410.68 302.72 403.61 332.98C396.54 363.24 407.95 444.43 407.95 444.43H430.95L435.4 438C435.4 438 440.05 370.7 441.4 366.57C442.75 362.44 457.11 342.57 469.76 342.57C482.41 342.57 512.95 334.57 523.67 370.5C534.39 406.43 533.93 465.07 533.93 465.07L560.61 462.43C560.61 462.43 567.55 386.75 563.61 363.08C559.67 339.41 554.69 321.48 545.83 316.53C536.97 311.58 450.73 315.04 450.73 315.04Z" fill="#3F3D56"/>
<path d="M478.84 316.5C478.84 316.5 473.51 320.01 467.92 323.5C462.33 326.99 456.48 330.38 455.39 330.27C453.19 330.04 450.3 329.93 447.31 320.39C444.32 310.85 438.03 309.06 437.83 308.11C437.63 307.16 424.78 296.19 424.25 294.35C423.87 293.07 422.04 289.07 425.08 284.77C426.919 282.43 429.302 280.573 432.02 279.36C440.652 275.219 449.502 271.547 458.53 268.36C459.249 268.893 459.839 269.58 460.258 270.371C460.676 271.162 460.913 272.036 460.95 272.93C461.22 276.14 456.06 284.33 455.39 287.42C454.72 290.51 460.48 299.29 460.48 299.29C460.48 299.29 464.71 301.46 466.58 301.39C468.45 301.32 487.78 296.21 489.77 296.62C491.76 297.03 502.29 302.77 478.84 316.5Z" fill="url(#paint38_linear_30_416)"/>
<path d="M467.92 323.48C462.34 326.94 456.48 330.36 455.39 330.25C453.19 330.02 450.3 329.91 447.31 320.37C444.32 310.83 438.03 309.04 437.83 308.09C437.63 307.14 424.78 296.17 424.25 294.33C423.87 293.05 422.04 289.05 425.08 284.75C425.489 285.007 425.853 285.327 426.16 285.7C426.16 285.7 427.82 293.65 433.23 296.06C438.64 298.47 450.73 315.06 450.73 315.06C450.73 315.06 450.3 323 454.53 324.42C458.76 325.84 467.92 323.48 467.92 323.48Z" fill="url(#paint39_linear_30_416)"/>
<path d="M500.94 321.2C500.94 321.2 484.04 331.88 476.75 330.05C472.231 328.923 467.797 327.479 463.48 325.73L478.84 316.51C478.84 316.51 477.84 309.87 471.61 308.09C465.38 306.31 470.61 300.75 476.23 301.42C481.85 302.09 486.97 302.28 486.97 302.28L491.45 303.11L500.94 321.2Z" fill="url(#paint40_linear_30_416)"/>
<path d="M418.31 287.51C417.943 289.631 418.151 291.812 418.913 293.826C419.674 295.839 420.961 297.612 422.64 298.96C423.246 299.475 423.977 299.82 424.76 299.96C425.144 300.008 425.533 299.949 425.886 299.79C426.239 299.632 426.541 299.379 426.76 299.06C427.49 297.8 426.34 296.35 425.51 295.17C422.76 291.27 426.58 283.4 429.98 280.04C430.423 279.672 430.802 279.233 431.1 278.74C431.234 278.411 431.299 278.057 431.291 277.702C431.284 277.347 431.205 276.997 431.058 276.673C430.911 276.349 430.7 276.059 430.437 275.819C430.174 275.58 429.866 275.396 429.53 275.28C428.09 274.89 423.58 278.44 422.67 279.35C420.403 281.55 418.879 284.403 418.31 287.51Z" fill="url(#paint41_linear_30_416)"/>
<path d="M465.43 151.31C465.73 147.86 467.43 144.4 466.43 141.08C465.91 139.28 464.66 137.78 463.97 136.08C462.07 131.21 464.97 125.79 468.44 121.89C475.83 113.62 485.99 108.48 495.7 103.14C498.56 101.57 501.47 99.94 504.7 99.38C507.93 98.82 511.55 99.56 513.65 102.05C514.295 103.058 515.08 103.971 515.98 104.76C517.68 105.88 519.92 105.24 521.98 105.18C523.736 105.145 525.47 105.573 527.007 106.421C528.545 107.269 529.832 108.507 530.74 110.01C532.4 112.82 532.74 116.55 535.38 118.49C537.02 119.7 539.25 119.92 540.86 121.17C542.027 122.239 542.937 123.559 543.52 125.03C544.853 127.783 546.187 130.53 547.52 133.27C550.98 140.39 554.52 148.43 552.07 155.96C551.137 158.444 549.887 160.797 548.35 162.96C546.403 165.993 544.45 169.027 542.49 172.06C540.21 175.6 536.83 179.63 532.72 178.72C532.88 174.26 533.043 169.8 533.21 165.34C533.21 164.21 533.21 162.84 532.21 162.29C531.39 161.84 530.39 162.2 529.46 162.29C525.04 162.47 523.91 156.29 521.01 152.95C520.116 151.941 518.989 151.167 517.727 150.695C516.465 150.222 515.106 150.066 513.77 150.24C511.43 150.58 509.16 151.93 506.84 151.47C504.17 150.93 502.55 148.24 500.22 146.84C494.62 143.49 487.85 148.43 483.22 153.03L478.58 157.66C477.66 158.58 476.67 159.66 476.67 160.95C476.61 170.16 464.89 157.62 465.43 151.31Z" fill="#3F3D56"/>
<path d="M450.19 265.74L423.36 241.07L450.19 235.56V265.74Z" fill="url(#paint42_linear_30_416)"/>
<path d="M491.45 303.11L547.88 289.06L535.19 259.17L533.38 270.97C532.608 275.981 530.541 280.703 527.384 284.67C524.227 288.638 520.089 291.712 515.38 293.59L491.45 303.11Z" fill="url(#paint43_linear_30_416)"/>
<path d="M432.23 289.58C432.421 289.913 432.711 290.179 433.06 290.34C433.349 290.401 433.65 290.381 433.929 290.282C434.207 290.183 434.453 290.009 434.64 289.78C436.56 287.93 436.41 284.89 437.01 282.29C437.644 279.504 439.232 277.028 441.5 275.29C444.02 273.36 447.35 272.37 449.17 269.77C449.769 268.832 450.253 267.824 450.61 266.77C450.74 266.44 450.83 266 450.54 265.77C450.43 265.707 450.307 265.669 450.18 265.66C444.62 264.99 438.981 265.48 433.62 267.1C431.62 267.71 429.55 268.56 428.34 270.28C427.13 272 427.04 274.47 427.41 276.63C427.595 277.771 428.142 278.823 428.97 279.63C429.317 279.97 429.589 280.379 429.77 280.83C429.951 281.281 430.036 281.764 430.02 282.25C430.143 284.838 430.902 287.355 432.23 289.58Z" fill="url(#paint44_linear_30_416)"/>
<path d="M438.94 285.96C438.618 286.017 438.326 286.184 438.113 286.432C437.9 286.68 437.779 286.993 437.77 287.32C437.778 287.648 437.875 287.968 438.051 288.244C438.228 288.521 438.476 288.744 438.77 288.89C439.065 289.029 439.386 289.108 439.712 289.122C440.038 289.136 440.364 289.084 440.67 288.97C440.84 288.918 440.994 288.825 441.12 288.7C441.304 288.476 441.393 288.189 441.37 287.9C441.374 287.577 441.305 287.257 441.168 286.965C441.031 286.672 440.83 286.414 440.58 286.21C440.319 286.018 440.004 285.915 439.68 285.915C439.356 285.915 439.041 286.018 438.78 286.21" fill="url(#paint45_linear_30_416)"/>
<path d="M441.77 279.39C441.449 279.449 441.158 279.616 440.945 279.864C440.732 280.111 440.611 280.424 440.6 280.75C440.608 281.078 440.705 281.398 440.881 281.674C441.058 281.951 441.306 282.174 441.6 282.32C442.198 282.596 442.881 282.625 443.5 282.4C443.672 282.346 443.829 282.254 443.96 282.13C444.141 281.905 444.227 281.618 444.2 281.33C444.206 281.007 444.138 280.686 444.001 280.393C443.864 280.101 443.662 279.843 443.41 279.64C443.149 279.448 442.834 279.345 442.51 279.345C442.186 279.345 441.871 279.448 441.61 279.64" fill="url(#paint46_linear_30_416)"/>
<path d="M447.72 281C447.398 281.057 447.106 281.224 446.893 281.472C446.68 281.72 446.559 282.033 446.55 282.36C446.558 282.688 446.655 283.008 446.831 283.284C447.008 283.561 447.256 283.784 447.55 283.93C448.148 284.206 448.831 284.235 449.45 284.01C449.62 283.958 449.774 283.865 449.9 283.74C450.083 283.515 450.172 283.229 450.15 282.94C450.154 282.617 450.085 282.297 449.948 282.005C449.811 281.712 449.61 281.454 449.36 281.25C449.099 281.058 448.784 280.955 448.46 280.955C448.136 280.955 447.821 281.058 447.56 281.25" fill="url(#paint47_linear_30_416)"/>
<path d="M445.93 285.96C445.607 286.016 445.314 286.182 445.101 286.43C444.887 286.678 444.767 286.993 444.76 287.32C444.767 287.648 444.864 287.968 445.04 288.245C445.216 288.522 445.465 288.745 445.76 288.89C446.056 289.029 446.376 289.107 446.702 289.121C447.028 289.135 447.354 289.083 447.66 288.97C447.885 288.903 448.08 288.76 448.209 288.564C448.339 288.368 448.396 288.133 448.37 287.9C448.372 287.576 448.301 287.256 448.162 286.964C448.024 286.671 447.821 286.414 447.57 286.21C447.311 286.018 446.997 285.914 446.675 285.914C446.353 285.914 446.039 286.018 445.78 286.21" fill="url(#paint48_linear_30_416)"/>
<path d="M437.34 306.02C417.04 318.4 401.54 360.88 393.8 383.35C390.8 392.02 388.61 402 386.49 412.25C383.11 428.63 379.92 445.69 374.13 459.15C359.92 492.15 338.67 503.91 330.13 539.15H323.34C321.463 522.855 315.965 507.186 307.25 493.29C291.96 468.29 264.37 440.4 253.05 412.29C251.99 409.674 251.069 407.003 250.29 404.29C243.41 380.06 244.98 309.79 268.6 309.79C247.71 317.79 250.33 358.79 249.8 383.03C249.627 393.099 251.676 403.083 255.8 412.27C261.48 425.5 270.45 437.54 279.1 451.08C293.58 473.77 313.98 489.3 328.25 527.25L360.85 475.88C365.35 468.79 369.85 461.66 373.02 453.88C378.02 441.44 380.85 426.41 383.8 412.27C384.88 407.04 385.98 401.94 387.21 397.13C395 366.69 405.05 343.13 425.85 314.89C429.04 310.49 435.79 300.82 437.34 306.02Z" fill="url(#paint49_linear_30_416)"/>
</g>
<defs>
<linearGradient id="paint0_linear_30_416" x1="408.63" y1="635.01" x2="408.63" y2="121.09" gradientUnits="userSpaceOnUse">
<stop stop-color="#68E1FD"/>
<stop offset="0.3" stop-color="#58A0BA"/>
<stop offset="0.55" stop-color="#4C718A"/>
<stop offset="0.68" stop-color="#485F77"/>
<stop offset="0.69" stop-color="#475C74"/>
<stop offset="0.87" stop-color="#41455E"/>
<stop offset="0.99" stop-color="#3F3D56"/>
</linearGradient>
<linearGradient id="paint1_linear_30_416" x1="757.59" y1="202.53" x2="711.01" y2="202.53" gradientUnits="userSpaceOnUse">
<stop/>
<stop offset="0.99" stop-opacity="0"/>
</linearGradient>
<linearGradient id="paint2_linear_30_416" x1="807.65" y1="214.96" x2="752.63" y2="193.43" gradientUnits="userSpaceOnUse">
<stop/>
<stop offset="0.99" stop-opacity="0"/>
</linearGradient>
<linearGradient id="paint3_linear_30_416" x1="799.02" y1="264.7" x2="775.58" y2="225.94" gradientUnits="userSpaceOnUse">
<stop/>
<stop offset="0.99" stop-opacity="0"/>
</linearGradient>
<linearGradient id="paint4_linear_30_416" x1="711.3" y1="374.56" x2="792.59" y2="374.56" gradientUnits="userSpaceOnUse">
<stop/>
<stop offset="0.99" stop-opacity="0"/>
</linearGradient>
<linearGradient id="paint5_linear_30_416" x1="396.26" y1="524.17" x2="392.47" y2="203.18" gradientUnits="userSpaceOnUse">
<stop/>
<stop offset="0.99" stop-opacity="0"/>
</linearGradient>
<linearGradient id="paint6_linear_30_416" x1="380.41" y1="560.59" x2="397.43" y2="172.49" gradientUnits="userSpaceOnUse">
<stop/>
<stop offset="0.99" stop-opacity="0"/>
</linearGradient>
<linearGradient id="paint7_linear_30_416" x1="364.84" y1="296.93" x2="489.6" y2="296.93" gradientUnits="userSpaceOnUse">
<stop stop-color="#183866"/>
<stop offset="1" stop-color="#1A7FC1"/>
</linearGradient>
<linearGradient id="paint8_linear_30_416" x1="154.19" y1="264.14" x2="371.61" y2="264.14" gradientUnits="userSpaceOnUse">
<stop stop-color="#183866"/>
<stop offset="1" stop-color="#1A7FC1"/>
</linearGradient>
<linearGradient id="paint9_linear_30_416" x1="425.86" y1="259.82" x2="593.69" y2="259.82" gradientUnits="userSpaceOnUse">
<stop stop-color="#183866"/>
<stop offset="1" stop-color="#1A7FC1"/>
</linearGradient>
<linearGradient id="paint10_linear_30_416" x1="174.44" y1="282.82" x2="353.76" y2="282.82" gradientUnits="userSpaceOnUse">
<stop stop-color="#A8EEFD"/>
<stop offset="1" stop-color="#E7FAFF"/>
</linearGradient>
<linearGradient id="paint11_linear_30_416" x1="390.34" y1="229.95" x2="390.34" y2="486.36" gradientUnits="userSpaceOnUse">
<stop/>
<stop offset="0.99" stop-opacity="0"/>
</linearGradient>
<linearGradient id="paint12_linear_30_416" x1="390.34" y1="306.8" x2="390.34" y2="412.96" gradientUnits="userSpaceOnUse">
<stop/>
<stop offset="0.99" stop-opacity="0"/>
</linearGradient>
<linearGradient id="paint13_linear_30_416" x1="427.24" y1="408.18" x2="548.1" y2="408.18" gradientUnits="userSpaceOnUse">
<stop stop-color="#183866"/>
<stop offset="1" stop-color="#1A7FC1"/>
</linearGradient>
<linearGradient id="paint14_linear_30_416" x1="201.09" y1="412.67" x2="328.48" y2="412.67" gradientUnits="userSpaceOnUse">
<stop stop-color="#183866"/>
<stop offset="1" stop-color="#1A7FC1"/>
</linearGradient>
<linearGradient id="paint15_linear_30_416" x1="91.85" y1="174.8" x2="100.69" y2="417.43" gradientUnits="userSpaceOnUse">
<stop/>
<stop offset="0.99" stop-opacity="0"/>
</linearGradient>
<linearGradient id="paint16_linear_30_416" x1="683.64" y1="233.55" x2="682.37" y2="394.04" gradientUnits="userSpaceOnUse">
<stop/>
<stop offset="0.99" stop-opacity="0"/>
</linearGradient>
<linearGradient id="paint17_linear_30_416" x1="270.73" y1="155.75" x2="269.37" y2="214.21" gradientUnits="userSpaceOnUse">
<stop stop-color="#ECC4D7"/>
<stop offset="0.42" stop-color="#EFD4D1"/>
<stop offset="1" stop-color="#F2EAC9"/>
</linearGradient>
<linearGradient id="paint18_linear_30_416" x1="254.36" y1="231.42" x2="282.4" y2="231.42" gradientUnits="userSpaceOnUse">
<stop stop-color="#ECC4D7"/>
<stop offset="0.42" stop-color="#EFD4D1"/>
<stop offset="1" stop-color="#F2EAC9"/>
</linearGradient>
<linearGradient id="paint19_linear_30_416" x1="506.4" y1="136.74" x2="504.59" y2="199.27" gradientUnits="userSpaceOnUse">
<stop stop-color="#ECC4D7"/>
<stop offset="0.42" stop-color="#EFD4D1"/>
<stop offset="1" stop-color="#F2EAC9"/>
</linearGradient>
<linearGradient id="paint20_linear_30_416" x1="489.78" y1="216.99" x2="517.81" y2="216.99" gradientUnits="userSpaceOnUse">
<stop stop-color="#ECC4D7"/>
<stop offset="0.42" stop-color="#EFD4D1"/>
<stop offset="1" stop-color="#F2EAC9"/>
</linearGradient>
<linearGradient id="paint21_linear_30_416" x1="199.83" y1="319.4" x2="224.89" y2="319.4" gradientUnits="userSpaceOnUse">
<stop stop-color="#68E1FD"/>
<stop offset="0.3" stop-color="#58A0BA"/>
<stop offset="0.55" stop-color="#4C718A"/>
<stop offset="0.68" stop-color="#485F77"/>
<stop offset="0.69" stop-color="#475C74"/>
<stop offset="0.87" stop-color="#41455E"/>
<stop offset="0.99" stop-color="#3F3D56"/>
</linearGradient>
<linearGradient id="paint22_linear_30_416" x1="204.71" y1="312.5" x2="249.81" y2="312.5" gradientUnits="userSpaceOnUse">
<stop stop-color="#ECC4D7"/>
<stop offset="0.42" stop-color="#EFD4D1"/>
<stop offset="1" stop-color="#F2EAC9"/>
</linearGradient>
<linearGradient id="paint23_linear_30_416" x1="302.8" y1="313.61" x2="327.86" y2="313.61" gradientUnits="userSpaceOnUse">
<stop stop-color="#68E1FD"/>
<stop offset="0.3" stop-color="#58A0BA"/>
<stop offset="0.55" stop-color="#4C718A"/>
<stop offset="0.68" stop-color="#485F77"/>
<stop offset="0.69" stop-color="#475C74"/>
<stop offset="0.87" stop-color="#41455E"/>
<stop offset="0.99" stop-color="#3F3D56"/>
</linearGradient>
<linearGradient id="paint24_linear_30_416" x1="277.88" y1="306.71" x2="322.98" y2="306.71" gradientUnits="userSpaceOnUse">
<stop stop-color="#ECC4D7"/>
<stop offset="0.42" stop-color="#EFD4D1"/>
<stop offset="1" stop-color="#F2EAC9"/>
</linearGradient>
<linearGradient id="paint25_linear_30_416" x1="227.13" y1="311.85" x2="298.86" y2="311.85" gradientUnits="userSpaceOnUse">
<stop stop-color="#68E1FD"/>
<stop offset="0.3" stop-color="#58A0BA"/>
<stop offset="0.55" stop-color="#4C718A"/>
<stop offset="0.68" stop-color="#485F77"/>
<stop offset="0.71" stop-color="#44516A"/>
<stop offset="0.75" stop-color="#41465E"/>
<stop offset="0.81" stop-color="#3F3F58"/>
<stop offset="0.99" stop-color="#3F3D56"/>
</linearGradient>
<linearGradient id="paint26_linear_30_416" x1="261.92" y1="289.66" x2="266.9" y2="329.54" gradientUnits="userSpaceOnUse">
<stop stop-color="#68E1FD"/>
<stop offset="0.3" stop-color="#58A0BA"/>
<stop offset="0.55" stop-color="#4C718A"/>
<stop offset="0.68" stop-color="#485F77"/>
<stop offset="0.71" stop-color="#44516A"/>
<stop offset="0.75" stop-color="#41465E"/>
<stop offset="0.81" stop-color="#3F3F58"/>
<stop offset="0.99" stop-color="#3F3D56"/>
</linearGradient>
<linearGradient id="paint27_linear_30_416" x1="219.42" y1="409.43" x2="223.21" y2="235.03" gradientUnits="userSpaceOnUse">
<stop/>
<stop offset="0.99" stop-opacity="0"/>
</linearGradient>
<linearGradient id="paint28_linear_30_416" x1="311.65" y1="411.43" x2="315.44" y2="237.04" gradientUnits="userSpaceOnUse">
<stop/>
<stop offset="0.99" stop-opacity="0"/>
</linearGradient>
<linearGradient id="paint29_linear_30_416" x1="197.84" y1="462.41" x2="222.5" y2="462.41" gradientUnits="userSpaceOnUse">
<stop stop-color="#ECC4D7"/>
<stop offset="0.42" stop-color="#EFD4D1"/>
<stop offset="1" stop-color="#F2EAC9"/>
</linearGradient>
<linearGradient id="paint30_linear_30_416" x1="309.54" y1="468.24" x2="334.62" y2="468.24" gradientUnits="userSpaceOnUse">
<stop stop-color="#ECC4D7"/>
<stop offset="0.42" stop-color="#EFD4D1"/>
<stop offset="1" stop-color="#F2EAC9"/>
</linearGradient>
<linearGradient id="paint31_linear_30_416" x1="231.37" y1="492.79" x2="187.05" y2="474.69" gradientUnits="userSpaceOnUse">
<stop/>
<stop offset="0.99" stop-opacity="0"/>
</linearGradient>
<linearGradient id="paint32_linear_30_416" x1="300.27" y1="493.37" x2="354.54" y2="482.52" gradientUnits="userSpaceOnUse">
<stop/>
<stop offset="0.99" stop-opacity="0"/>
</linearGradient>
<linearGradient id="paint33_linear_30_416" x1="534.9" y1="473.2" x2="558.61" y2="473.2" gradientUnits="userSpaceOnUse">
<stop stop-color="#ECC4D7"/>
<stop offset="0.42" stop-color="#EFD4D1"/>
<stop offset="1" stop-color="#F2EAC9"/>
</linearGradient>
<linearGradient id="paint34_linear_30_416" x1="410.05" y1="451.06" x2="433.76" y2="451.06" gradientUnits="userSpaceOnUse">
<stop stop-color="#ECC4D7"/>
<stop offset="0.42" stop-color="#EFD4D1"/>
<stop offset="1" stop-color="#F2EAC9"/>
</linearGradient>
<linearGradient id="paint35_linear_30_416" x1="527.84" y1="506.88" x2="581.95" y2="474.1" gradientUnits="userSpaceOnUse">
<stop/>
<stop offset="0.99" stop-opacity="0"/>
</linearGradient>
<linearGradient id="paint36_linear_30_416" x1="384.56" y1="458.25" x2="446.99" y2="480.63" gradientUnits="userSpaceOnUse">
<stop/>
<stop offset="0.99" stop-opacity="0"/>
</linearGradient>
<linearGradient id="paint37_linear_30_416" x1="728.07" y1="339.12" x2="767.13" y2="276.2" gradientUnits="userSpaceOnUse">
<stop/>
<stop offset="0.99" stop-opacity="0"/>
</linearGradient>
<linearGradient id="paint38_linear_30_416" x1="423.36" y1="299.32" x2="493.85" y2="299.32" gradientUnits="userSpaceOnUse">
<stop stop-color="#68E1FD"/>
<stop offset="0.3" stop-color="#58A0BA"/>
<stop offset="0.55" stop-color="#4C718A"/>
<stop offset="0.68" stop-color="#485F77"/>
<stop offset="0.71" stop-color="#44516A"/>
<stop offset="0.75" stop-color="#41465E"/>
<stop offset="0.81" stop-color="#3F3F58"/>
<stop offset="0.99" stop-color="#3F3D56"/>
</linearGradient>
<linearGradient id="paint39_linear_30_416" x1="423.36" y1="307.5" x2="467.92" y2="307.5" gradientUnits="userSpaceOnUse">
<stop stop-color="#68E1FD"/>
<stop offset="0.3" stop-color="#58A0BA"/>
<stop offset="0.55" stop-color="#4C718A"/>
<stop offset="0.68" stop-color="#485F77"/>
<stop offset="0.71" stop-color="#44516A"/>
<stop offset="0.75" stop-color="#41465E"/>
<stop offset="0.81" stop-color="#3F3F58"/>
<stop offset="0.99" stop-color="#3F3D56"/>
</linearGradient>
<linearGradient id="paint40_linear_30_416" x1="463.48" y1="315.81" x2="500.94" y2="315.81" gradientUnits="userSpaceOnUse">
<stop stop-color="#ECC4D7"/>
<stop offset="0.42" stop-color="#EFD4D1"/>
<stop offset="1" stop-color="#F2EAC9"/>
</linearGradient>
<linearGradient id="paint41_linear_30_416" x1="418.15" y1="287.57" x2="431.34" y2="287.57" gradientUnits="userSpaceOnUse">
<stop stop-color="#ECC4D7"/>
<stop offset="0.42" stop-color="#EFD4D1"/>
<stop offset="1" stop-color="#F2EAC9"/>
</linearGradient>
<linearGradient id="paint42_linear_30_416" x1="431.98" y1="259.54" x2="334.09" y2="384.61" gradientUnits="userSpaceOnUse">
<stop stop-color="#68E1FD"/>
<stop offset="0.08" stop-color="#84E6FD"/>
<stop offset="0.21" stop-color="#A9EEFE"/>
<stop offset="0.35" stop-color="#C8F4FE"/>
<stop offset="0.49" stop-color="#E0F9FF"/>
<stop offset="0.64" stop-color="#F2FCFF"/>
<stop offset="0.8" stop-color="#FCFEFF"/>
<stop offset="1" stop-color="white"/>
</linearGradient>
<linearGradient id="paint43_linear_30_416" x1="515.29" y1="255.33" x2="532.06" y2="411.67" gradientUnits="userSpaceOnUse">
<stop stop-color="#68E1FD"/>
<stop offset="0.08" stop-color="#84E6FD"/>
<stop offset="0.21" stop-color="#A9EEFE"/>
<stop offset="0.35" stop-color="#C8F4FE"/>
<stop offset="0.49" stop-color="#E0F9FF"/>
<stop offset="0.64" stop-color="#F2FCFF"/>
<stop offset="0.8" stop-color="#FCFEFF"/>
<stop offset="1" stop-color="white"/>
</linearGradient>
<linearGradient id="paint44_linear_30_416" x1="427.2" y1="277.92" x2="450.73" y2="277.92" gradientUnits="userSpaceOnUse">
<stop stop-color="#ECC4D7"/>
<stop offset="0.42" stop-color="#EFD4D1"/>
<stop offset="1" stop-color="#F2EAC9"/>
</linearGradient>
<linearGradient id="paint45_linear_30_416" x1="436.06" y1="287.86" x2="446.14" y2="286.9" gradientUnits="userSpaceOnUse">
<stop stop-color="#68E1FD"/>
<stop offset="0.3" stop-color="#58A0BA"/>
<stop offset="0.55" stop-color="#4C718A"/>
<stop offset="0.68" stop-color="#485F77"/>
<stop offset="0.71" stop-color="#44516A"/>
<stop offset="0.75" stop-color="#41465E"/>
<stop offset="0.81" stop-color="#3F3F58"/>
<stop offset="0.99" stop-color="#3F3D56"/>
</linearGradient>
<linearGradient id="paint46_linear_30_416" x1="438.89" y1="281.29" x2="448.98" y2="280.33" gradientUnits="userSpaceOnUse">
<stop stop-color="#68E1FD"/>
<stop offset="0.3" stop-color="#58A0BA"/>
<stop offset="0.55" stop-color="#4C718A"/>
<stop offset="0.68" stop-color="#485F77"/>
<stop offset="0.71" stop-color="#44516A"/>
<stop offset="0.75" stop-color="#41465E"/>
<stop offset="0.81" stop-color="#3F3F58"/>
<stop offset="0.99" stop-color="#3F3D56"/>
</linearGradient>
<linearGradient id="paint47_linear_30_416" x1="444.84" y1="282.9" x2="454.92" y2="281.94" gradientUnits="userSpaceOnUse">
<stop stop-color="#68E1FD"/>
<stop offset="0.3" stop-color="#58A0BA"/>
<stop offset="0.55" stop-color="#4C718A"/>
<stop offset="0.68" stop-color="#485F77"/>
<stop offset="0.71" stop-color="#44516A"/>
<stop offset="0.75" stop-color="#41465E"/>
<stop offset="0.81" stop-color="#3F3F58"/>
<stop offset="0.99" stop-color="#3F3D56"/>
</linearGradient>
<linearGradient id="paint48_linear_30_416" x1="443.05" y1="287.86" x2="453.13" y2="286.9" gradientUnits="userSpaceOnUse">
<stop stop-color="#68E1FD"/>
<stop offset="0.3" stop-color="#58A0BA"/>
<stop offset="0.55" stop-color="#4C718A"/>
<stop offset="0.68" stop-color="#485F77"/>
<stop offset="0.71" stop-color="#44516A"/>
<stop offset="0.75" stop-color="#41465E"/>
<stop offset="0.81" stop-color="#3F3F58"/>
<stop offset="0.99" stop-color="#3F3D56"/>
</linearGradient>
<linearGradient id="paint49_linear_30_416" x1="246.72" y1="421.84" x2="437.34" y2="421.84" gradientUnits="userSpaceOnUse">
<stop stop-color="#A8EEFD"/>
<stop offset="1" stop-color="#E7FAFF"/>
</linearGradient>
<clipPath id="clip0_30_416">
<rect width="810.12" height="539.16" fill="white"/>
</clipPath>
</defs>
</svg>
