<svg width="824" height="597" viewBox="0 0 824 597" fill="none" xmlns="http://www.w3.org/2000/svg">
<g clip-path="url(#clip0_30_342)">
<path opacity="0.18" d="M131.3 125C106.96 130.16 81.66 135.76 62.1199 151.17C45.6199 164.17 19.91 188.17 12.12 207.67C-20.88 290.04 16.43 390.27 88.85 441.53C122.91 465.64 165.36 477.31 195.97 505.69C215.33 523.64 228.89 547.4 249.49 563.9C279.59 587.99 320.23 593.32 358.69 595.9C385.41 597.71 413.17 598.49 437.96 588.33C455.88 580.99 471.06 568.4 485.96 555.99L584.67 473.56C600.53 460.33 615.36 439.26 636.01 439.4C821.87 440.73 834.4 222 549.15 125.12C524.01 116.58 506.77 92.84 483.15 80.67C434.36 55.52 378.21 63.67 329 81.07C266.52 103.22 196.14 111.21 131.3 125Z" fill="#68E1FD"/>
<path opacity="0.05" d="M779.07 477.86C786.85 477.99 796.87 479.93 798.07 487.61C798.72 491.61 796.43 495.5 793.95 498.73C778.44 519 752.74 529.25 727.38 532C702.02 534.75 676.46 530.9 651.14 527.78C614.553 523.26 577.82 520.26 540.94 518.78C514.72 517.72 487.14 517.06 464.56 503.7C460.37 501.23 456.25 498.14 454.24 493.7C450.24 484.87 456.56 474.12 465.24 469.83C473.92 465.54 484.12 465.96 493.8 466.48C588.86 471.6 683.85 477.86 779.07 477.86Z" fill="#000405"/>
<path d="M779.4 126.4C779.4 126.4 745.57 170.15 739.15 177.48C727.44 190.8 719.89 208.27 719.89 208.27L702.89 280.61L683.89 275.54L642.58 264.54C642.58 264.54 657.26 225 650.15 213C640.67 197 648.87 187 651.03 180.13C655.03 167.4 634.6 144.13 634.6 144.13L621.51 85.5L641.27 82.86L655.61 130.39L680.18 152.32L697.68 153.25C697.68 153.25 710.88 155.97 720.48 151.53C729.66 147.27 762.09 110.7 762.09 110.7L775.32 122.7L779.4 126.4ZM617.33 200.59V461.15C617.329 464.415 616.684 467.647 615.434 470.663C614.183 473.678 612.351 476.418 610.042 478.726C607.732 481.033 604.991 482.863 601.974 484.111C598.958 485.36 595.725 486.001 592.46 486H202.77C199.505 486 196.271 485.357 193.254 484.107C190.237 482.857 187.496 481.025 185.188 478.715C182.879 476.406 181.048 473.664 179.8 470.647C178.551 467.629 177.909 464.396 177.91 461.13V200.59C177.907 197.324 178.549 194.09 179.797 191.072C181.045 188.054 182.876 185.312 185.185 183.002C187.494 180.692 190.235 178.86 193.253 177.611C196.27 176.361 199.504 175.719 202.77 175.72H592.46C599.056 175.72 605.382 178.34 610.046 183.004C614.71 187.668 617.33 193.994 617.33 200.59Z" fill="#68E1FD"/>
<path d="M610.59 183.67H183.98L187.44 181.02C187.6 180.881 187.767 180.751 187.94 180.63L390.88 25.07L397.29 20.16L603.76 178.44L610.59 183.67Z" fill="#68E1FD"/>
<path d="M617.33 200.59L612.14 204.34L574.35 231.71L390.88 364.6L214.43 228.71L177.91 200.59L178.38 195.76C179.27 191.232 181.411 187.043 184.56 183.67C185.444 182.708 186.407 181.821 187.44 181.02C187.6 180.881 187.767 180.751 187.94 180.63C192.223 177.435 197.426 175.712 202.77 175.72H592.46C598.639 175.723 604.596 178.026 609.171 182.179C613.746 186.333 616.612 192.04 617.21 198.19C617.29 198.987 617.33 199.788 617.33 200.59Z" fill="#68E1FD"/>
<path opacity="0.61" d="M187.44 181C186.412 181.807 185.449 182.693 184.56 183.65H183.98L187.44 181Z" fill="url(#paint0_linear_30_342)"/>
<path opacity="0.61" d="M617.33 200.59L612.14 204.35L574.35 231.71L390.88 364.6L214.43 228.72L177.91 200.59L178.38 195.77C179.27 191.239 181.411 187.047 184.56 183.67C185.449 182.713 186.412 181.827 187.44 181.02L187.94 180.64L390.88 25.07L397.29 20.16L603.76 178.44C607.483 180.336 610.668 183.141 613.019 186.595C615.37 190.049 616.812 194.041 617.21 198.2C617.29 198.994 617.33 199.792 617.33 200.59Z" fill="url(#paint1_linear_30_342)"/>
<path d="M574.35 181.34V231.72L506.64 280.72L491.11 292L390.88 364.6L296.61 292L282.02 280.76L214.43 228.76V181.34C214.43 177.423 215.986 173.666 218.756 170.896C221.526 168.126 225.283 166.57 229.2 166.57H559.59C563.505 166.573 567.26 168.13 570.027 170.9C572.795 173.669 574.35 177.425 574.35 181.34Z" fill="white"/>
<path d="M524.73 225.51H257.73C256.239 225.51 254.81 224.918 253.756 223.864C252.702 222.81 252.11 221.381 252.11 219.89C252.11 219.152 252.255 218.421 252.538 217.739C252.82 217.057 253.234 216.438 253.756 215.916C254.278 215.394 254.897 214.98 255.579 214.698C256.261 214.415 256.992 214.27 257.73 214.27H524.73C525.468 214.27 526.199 214.415 526.881 214.698C527.563 214.98 528.182 215.394 528.704 215.916C529.226 216.438 529.64 217.057 529.922 217.739C530.205 218.421 530.35 219.152 530.35 219.89C530.35 221.381 529.758 222.81 528.704 223.864C527.65 224.918 526.22 225.51 524.73 225.51Z" fill="url(#paint2_linear_30_342)"/>
<path d="M524.73 258.76H257.73C256.239 258.76 254.81 258.168 253.756 257.114C252.702 256.06 252.11 254.631 252.11 253.14C252.11 251.649 252.702 250.22 253.756 249.166C254.81 248.112 256.239 247.52 257.73 247.52H524.73C526.22 247.52 527.65 248.112 528.704 249.166C529.758 250.22 530.35 251.649 530.35 253.14C530.35 254.631 529.758 256.06 528.704 257.114C527.65 258.168 526.22 258.76 524.73 258.76Z" fill="url(#paint3_linear_30_342)"/>
<path d="M506.64 280.76L491.11 292H296.61L282.01 280.76H506.64Z" fill="url(#paint4_linear_30_342)"/>
<path opacity="0.05" d="M390.88 364.6L228.02 486.02H557.1L390.88 364.6Z" fill="#000405"/>
<path d="M250.4 90.2C242.2 72.61 211.4 75.5 211.4 75.5C230.4 64.29 226.76 35.82 226.53 34.14C234.84 58.96 263.53 53.48 266.1 52.94C247.05 57.64 250.4 90.2 250.4 90.2ZM197 126.29C191.79 115.11 172.2 116.95 172.2 116.95C184.6 109.58 181.79 90.61 181.79 90.61V90.72C187.11 106.41 205.31 102.93 206.93 102.59C194.87 105.59 197 126.29 197 126.29Z" fill="#68E1FD"/>
<path d="M721.56 92.7C723.974 90.7591 727.029 89.7956 730.12 90C732.382 89.9081 734.596 90.6722 736.32 92.14C737.647 93.6314 738.49 95.4897 738.74 97.47C739.228 99.9248 739.413 102.43 739.29 104.93C739.07 109.52 737.88 114.38 739.86 118.53C740.333 119.516 740.968 120.415 741.74 121.19C742.635 122.192 743.881 122.812 745.22 122.92C745.886 122.95 746.54 122.74 747.065 122.329C747.589 121.918 747.949 121.333 748.08 120.68C747.414 122.162 746.417 123.472 745.166 124.508C743.914 125.544 742.442 126.279 740.861 126.657C739.281 127.035 737.635 127.045 736.05 126.686C734.465 126.328 732.984 125.611 731.72 124.59L733.46 128.12C732.02 127.748 730.624 127.218 729.3 126.54C725.05 124.23 722.67 119.54 721.54 114.8C720.54 110.45 720.34 105.96 719.4 101.59C718.67 98.24 718.85 95.12 721.56 92.7Z" fill="#3F3D56"/>
<path d="M720.28 97.5C721.143 97.4721 722.005 97.6044 722.82 97.89C723.496 98.1709 724.081 98.6317 724.513 99.2224C724.945 99.8131 725.207 100.511 725.27 101.24C725.307 101.973 725.13 102.7 724.761 103.334C724.392 103.968 723.846 104.481 723.19 104.81C722.335 105.162 721.413 105.322 720.49 105.28C719.65 105.28 718.8 105.28 717.96 105.2C717.72 105.201 717.483 105.142 717.27 105.03C717.055 104.854 716.892 104.622 716.8 104.36C716.253 103.27 715.84 102.119 715.57 100.93C714.88 97.25 717.36 97.47 720.28 97.5Z" fill="#68E1FD"/>
<path d="M704.01 132.61C704.01 132.61 703.85 135.5 703.65 139.26C703.48 142.43 703.27 146.26 703.1 149.44C702.808 154.819 700.498 159.89 696.63 163.64C694.37 165.95 688.98 170.26 684.87 168.73C682.87 167.99 682.8 165.47 683.22 163.96C684.145 161.207 684.661 158.333 684.75 155.43C684.816 153.08 684.604 150.73 684.12 148.43C681.54 142 704.01 132.61 704.01 132.61Z" fill="url(#paint5_linear_30_342)"/>
<path d="M704.01 132.61C704.01 132.61 703.85 135.5 703.65 139.26C702.07 142.78 700.59 145.65 699.78 147.08C698.15 149.97 691.45 154.52 684.78 155.43C684.846 153.08 684.634 150.73 684.15 148.43C681.54 142 704.01 132.61 704.01 132.61Z" fill="url(#paint6_linear_30_342)"/>
<path d="M684.44 94.32C681.495 94.499 678.619 95.2825 675.99 96.6217C673.361 97.9608 671.036 99.8269 669.16 102.104C667.284 104.381 665.896 107.019 665.084 109.856C664.272 112.692 664.053 115.665 664.44 118.59C665.108 127.327 667.351 135.871 671.06 143.81C678.06 155.81 695.8 145.94 698.61 141C701.42 136.06 712.2 113.78 707.67 107.47C704.55 103.21 695.9 93.86 684.44 94.32Z" fill="url(#paint7_linear_30_342)"/>
<path d="M678.14 82.1301C685.666 79.9315 693.695 80.166 701.08 82.8001C708.35 85.5601 714.62 91.2401 717.39 98.5101C719.773 105.247 719.545 112.633 716.75 119.21C713.935 125.734 709.451 131.4 703.75 135.64C702.28 131.14 706.81 127.14 708.57 122.75C708.978 121.939 709.067 121.004 708.82 120.13C708.18 118.5 705.74 118.32 704.35 119.38C702.96 120.44 702.35 122.23 701.84 123.9C703.19 116.75 704.19 108.35 699.13 103.11C696.13 100.01 691.6 98.8501 687.28 98.8101C683.313 98.7983 679.385 99.6008 675.74 101.168C672.096 102.735 668.811 105.033 666.09 107.92C664.5 109.63 662.24 111.73 660.22 110.55C659.592 110.12 659.099 109.52 658.8 108.82C652.83 97.0001 668.51 84.7701 678.14 82.1301Z" fill="#3F3D56"/>
<path d="M687.8 95.34C682.8 93.14 677.55 91.34 672.12 91.34C666.69 91.34 661.06 93.18 657.47 97.26C655.595 99.5336 654.231 102.183 653.47 105.03C652.867 106.811 652.629 108.695 652.77 110.57C652.987 111.93 653.322 113.268 653.77 114.57C654.71 117.81 655.11 121.57 653.06 124.29C652.68 124.832 652.182 125.281 651.604 125.604C651.025 125.926 650.381 126.113 649.72 126.15C649.058 126.162 648.414 125.931 647.91 125.502C647.405 125.074 647.075 124.475 646.98 123.82C646.1 126.31 647.54 129.23 649.83 130.54C651.01 131.14 652.303 131.484 653.625 131.548C654.947 131.612 656.268 131.394 657.5 130.91C658.536 130.583 659.497 130.057 660.33 129.36C661.153 128.568 661.83 127.637 662.33 126.61C664.42 122.82 665.47 118.61 667.03 114.52C668.59 110.43 670.85 106.52 674.54 104.22C677.464 102.624 680.749 101.808 684.08 101.85C687.39 101.74 690.72 102.01 694.02 101.71C697.32 101.41 694.93 99.45 693.51 98.42C691.718 97.1997 689.804 96.1676 687.8 95.34Z" fill="#3F3D56"/>
<path d="M822.11 59.49C822.96 60.15 815 66.35 815 66.35C815 66.35 811.28 72.76 807.5 74.54C803.72 76.32 775.32 122.69 775.32 122.69L764.11 112.53L788.29 80C788.29 80 796.29 64.67 795.4 58C795.4 58 795.88 50.12 798.29 53.78C799.99 56.39 798.9 60.5 800.91 60.94C801.133 60.96 801.356 60.9112 801.55 60.8C803.217 59.7878 804.747 58.5643 806.1 57.16C810.1 53.35 814.88 48.05 814.88 48.05C814.88 48.05 817.5 46.94 817.17 48.05C816.84 49.16 812.03 56.65 811.76 57.05C812.21 56.64 819.59 50.05 820.76 50.56C821.93 51.07 815.04 58.66 814.64 59.1C815.07 58.8 822.94 53.32 823.53 53.81C824.64 54.74 817.53 60.91 816.94 61.38C817.39 61.14 821.3 58.85 822.11 59.49Z" fill="url(#paint8_linear_30_342)"/>
<path d="M813.67 64.24C813.074 64.4344 812.44 64.4858 811.82 64.39C809.804 64.2366 807.78 64.2032 805.76 64.29C804.4 64.35 801.59 65.29 801.52 63.18C801.52 62.62 801.66 62.07 801.63 61.51C801.63 61.27 801.57 61.03 801.53 60.79C803.197 59.7778 804.726 58.5544 806.08 57.15C806.693 57.3547 807.272 57.6478 807.8 58.02C809.133 58.88 810.447 59.73 811.74 60.57C812.44 61.03 813.14 61.49 813.81 61.99C814.107 62.1752 814.343 62.4428 814.49 62.76C814.555 63.0641 814.507 63.3813 814.357 63.6532C814.206 63.9252 813.962 64.1335 813.67 64.24Z" fill="url(#paint9_linear_30_342)"/>
<path d="M618.4 7.42001C617.32 7.54001 620.82 17 620.82 17C620.82 17 620.6 24.41 622.87 27.91C625.14 31.41 624.82 85.06 624.82 85.06L639.7 83.06L636.32 42.65C636.32 42.65 637.61 25.41 641.88 20.22C641.88 20.22 645.62 13.27 641.65 15.11C638.83 16.43 637.58 20.49 635.65 19.81C635.448 19.7104 635.284 19.5493 635.18 19.35C634.272 17.6171 633.6 15.7708 633.18 13.86C631.77 8.51001 630.53 1.49001 630.53 1.49001C630.53 1.49001 628.93 -0.80999 628.67 0.30001C628.41 1.41001 628.5 10.3 628.51 10.81C628.34 10.24 625.56 0.72001 624.26 0.55001C622.96 0.38001 624.85 10.45 624.97 11.03C624.75 10.55 620.97 1.75001 620.19 1.85001C618.76 2.06001 621.6 11.08 621.81 11.75C621.53 11.31 619.42 7.32001 618.4 7.42001Z" fill="url(#paint10_linear_30_342)"/>
<path d="M623.04 15.91C623.445 16.3845 623.955 16.7578 624.53 17C626.324 17.9354 628.06 18.9773 629.73 20.12C630.86 20.89 632.73 23.19 633.92 21.41C634.24 20.95 634.39 20.41 634.71 19.94C634.856 19.7412 635.013 19.5509 635.18 19.37C634.272 17.6371 633.6 15.7908 633.18 13.88C632.552 13.7314 631.904 13.6775 631.26 13.72L626.57 13.81C625.73 13.81 624.89 13.81 624.05 13.92C623.694 13.9184 623.346 14.0228 623.05 14.22C622.845 14.4533 622.732 14.7527 622.73 15.0631C622.728 15.3736 622.838 15.6742 623.04 15.91Z" fill="url(#paint11_linear_30_342)"/>
<path d="M565.67 479.21C561.67 487.38 558.76 493.73 558.76 493.73L508.43 496.13C508.43 496.13 516.77 474.06 530.34 479.76C534.93 481.68 551.56 478.07 551.56 478.07L552.08 476.4L565.67 479.21Z" fill="url(#paint12_linear_30_342)"/>
<path d="M744.05 481.68L736.34 486L670.34 416.62L663.06 324L602.88 378.59C602.88 378.59 604.49 416.18 583.45 445.59C579.68 450.86 572.01 466.17 566.21 478.13C566.03 478.5 565.85 478.88 565.68 479.25L564.55 479.02L560.62 478.2L552.09 476.44L579.75 364.64L642.6 264.58L683.91 275.58L702.91 280.65C702.91 280.65 715.73 306.34 702.91 372.83L694.41 410.89C694.41 410.89 728.67 429.16 739.23 465.3L744.04 481.66L744.05 481.68Z" fill="#3F3D56"/>
<path d="M744.05 481.68L751.88 489.87L732.01 510.59H706.01C706.01 510.59 711.55 501.44 722.63 499.99C733.71 498.54 736.36 485.99 736.36 485.99L744.05 481.68Z" fill="url(#paint13_linear_30_342)"/>
<path opacity="0.22" d="M215.81 74.06L211.42 75.5C230.42 64.29 226.78 35.82 226.55 34.14C226.85 35.49 231.27 54.28 228.86 60.45C225.85 68.16 215.81 74.06 215.81 74.06ZM184.41 108.44C182.09 111.65 172.87 116.6 172.24 116.93C184.64 109.56 181.83 90.59 181.83 90.59V90.7C182.32 92 186.67 105.3 184.41 108.44Z" fill="white"/>
<path opacity="0.22" d="M178.65 214.27L382.32 370.98L390.88 364.6L177.91 200.59L178.65 214.27ZM397.62 369.97L617.33 211.83V201.04L390.88 365.04L397.62 369.97Z" fill="white"/>
<path opacity="0.22" d="M617.21 198.64L616.61 200.32L612.14 204.79C615.28 199.37 606.41 186.79 606.41 186.79L602.87 184.14L592.24 176.14L390.88 25.52L397.29 20.61L603.76 178.88C607.482 180.778 610.665 183.584 613.016 187.037C615.367 190.491 616.809 194.481 617.21 198.64Z" fill="white"/>
<path opacity="0.61" d="M779.4 126.4C779.4 126.4 745.57 170.15 739.15 177.48C727.44 190.8 719.89 208.27 719.89 208.27L702.89 280.61L683.89 275.54C683.89 275.54 701.63 209.21 708.76 195.13C715.89 181.05 775.3 122.69 775.3 122.69L779.4 126.4Z" fill="url(#paint14_linear_30_342)"/>
<path d="M744.04 481.66C743.69 480.66 732.4 449.3 715.45 436.15C698.24 422.79 688.24 404.35 688.24 404.35C684.19 368.95 683.91 275.54 683.91 275.54L702.91 280.61C702.91 280.61 715.73 306.3 702.91 372.79L694.41 410.85C694.41 410.85 728.67 429.16 739.23 465.3L744.04 481.66ZM602.88 378.57C602.88 378.57 604.49 416.16 583.45 445.57C579.68 450.84 572.01 466.15 566.21 478.11L564.55 479L560.62 478.18L593.24 375.29C593.24 375.29 632.75 328.48 639.98 324C647.21 319.52 663.06 324 663.06 324L602.88 378.57Z" fill="#25233A"/>
</g>
<defs>
<linearGradient id="paint0_linear_30_342" x1="184.14" y1="186.62" x2="187.97" y2="176.21" gradientUnits="userSpaceOnUse">
<stop offset="0.36" stop-color="#00272E"/>
<stop offset="0.75" stop-color="#3F80A1" stop-opacity="0.25"/>
<stop offset="1" stop-color="#69B9EB" stop-opacity="0"/>
</linearGradient>
<linearGradient id="paint1_linear_30_342" x1="342.97" y1="346.98" x2="455.31" y2="41.5" gradientUnits="userSpaceOnUse">
<stop offset="0.36" stop-color="#00272E"/>
<stop offset="0.75" stop-color="#3F80A1" stop-opacity="0.25"/>
<stop offset="1" stop-color="#69B9EB" stop-opacity="0"/>
</linearGradient>
<linearGradient id="paint2_linear_30_342" x1="392.87" y1="139.61" x2="382.75" y2="633.96" gradientUnits="userSpaceOnUse">
<stop stop-color="#68E1FD"/>
<stop offset="0.01" stop-color="#67DDF9"/>
<stop offset="0.12" stop-color="#5CB3CE"/>
<stop offset="0.24" stop-color="#538EA9"/>
<stop offset="0.37" stop-color="#4C718B"/>
<stop offset="0.5" stop-color="#465A73"/>
<stop offset="0.63" stop-color="#424A63"/>
<stop offset="0.79" stop-color="#404059"/>
<stop offset="0.99" stop-color="#3F3D56"/>
</linearGradient>
<linearGradient id="paint3_linear_30_342" x1="393.55" y1="139.62" x2="383.43" y2="633.98" gradientUnits="userSpaceOnUse">
<stop stop-color="#68E1FD"/>
<stop offset="0.01" stop-color="#67DDF9"/>
<stop offset="0.12" stop-color="#5CB3CE"/>
<stop offset="0.24" stop-color="#538EA9"/>
<stop offset="0.37" stop-color="#4C718B"/>
<stop offset="0.5" stop-color="#465A73"/>
<stop offset="0.63" stop-color="#424A63"/>
<stop offset="0.79" stop-color="#404059"/>
<stop offset="0.99" stop-color="#3F3D56"/>
</linearGradient>
<linearGradient id="paint4_linear_30_342" x1="397.21" y1="139.69" x2="387.09" y2="634.05" gradientUnits="userSpaceOnUse">
<stop stop-color="#68E1FD"/>
<stop offset="0.01" stop-color="#67DDF9"/>
<stop offset="0.12" stop-color="#5CB3CE"/>
<stop offset="0.24" stop-color="#538EA9"/>
<stop offset="0.37" stop-color="#4C718B"/>
<stop offset="0.5" stop-color="#465A73"/>
<stop offset="0.63" stop-color="#424A63"/>
<stop offset="0.79" stop-color="#404059"/>
<stop offset="0.99" stop-color="#3F3D56"/>
</linearGradient>
<linearGradient id="paint5_linear_30_342" x1="683.02" y1="150.83" x2="704.01" y2="150.83" gradientUnits="userSpaceOnUse">
<stop stop-color="#ECC4D7"/>
<stop offset="0.42" stop-color="#EFD4D1"/>
<stop offset="1" stop-color="#F2EAC9"/>
</linearGradient>
<linearGradient id="paint6_linear_30_342" x1="694.14" y1="139.15" x2="689.81" y2="187.7" gradientUnits="userSpaceOnUse">
<stop stop-color="#ECC4D7"/>
<stop offset="0.42" stop-color="#EFD4D1"/>
<stop offset="1" stop-color="#F2EAC9"/>
</linearGradient>
<linearGradient id="paint7_linear_30_342" x1="664.27" y1="121.91" x2="708.78" y2="121.91" gradientUnits="userSpaceOnUse">
<stop stop-color="#ECC4D7"/>
<stop offset="0.42" stop-color="#EFD4D1"/>
<stop offset="1" stop-color="#F2EAC9"/>
</linearGradient>
<linearGradient id="paint8_linear_30_342" x1="764.11" y1="85.12" x2="823.67" y2="85.12" gradientUnits="userSpaceOnUse">
<stop stop-color="#ECC4D7"/>
<stop offset="0.42" stop-color="#EFD4D1"/>
<stop offset="1" stop-color="#F2EAC9"/>
</linearGradient>
<linearGradient id="paint9_linear_30_342" x1="809.97" y1="78.07" x2="803.95" y2="31.33" gradientUnits="userSpaceOnUse">
<stop stop-color="#ECC4D7"/>
<stop offset="0.42" stop-color="#EFD4D1"/>
<stop offset="1" stop-color="#F2EAC9"/>
</linearGradient>
<linearGradient id="paint10_linear_30_342" x1="654.681" y1="59.9774" x2="604.179" y2="28.4207" gradientUnits="userSpaceOnUse">
<stop stop-color="#ECC4D7"/>
<stop offset="0.42" stop-color="#EFD4D1"/>
<stop offset="1" stop-color="#F2EAC9"/>
</linearGradient>
<linearGradient id="paint11_linear_30_342" x1="619.364" y1="29.9733" x2="649.238" y2="-6.47446" gradientUnits="userSpaceOnUse">
<stop stop-color="#ECC4D7"/>
<stop offset="0.42" stop-color="#EFD4D1"/>
<stop offset="1" stop-color="#F2EAC9"/>
</linearGradient>
<linearGradient id="paint12_linear_30_342" x1="532.84" y1="470.11" x2="540.55" y2="502.23" gradientUnits="userSpaceOnUse">
<stop stop-color="#68E1FD"/>
<stop offset="0.01" stop-color="#67DDF9"/>
<stop offset="0.12" stop-color="#5CB3CE"/>
<stop offset="0.24" stop-color="#538EA9"/>
<stop offset="0.37" stop-color="#4C718B"/>
<stop offset="0.5" stop-color="#465A73"/>
<stop offset="0.63" stop-color="#424A63"/>
<stop offset="0.79" stop-color="#404059"/>
<stop offset="0.99" stop-color="#3F3D56"/>
</linearGradient>
<linearGradient id="paint13_linear_30_342" x1="722.88" y1="491.76" x2="735.73" y2="509.74" gradientUnits="userSpaceOnUse">
<stop stop-color="#68E1FD"/>
<stop offset="0.01" stop-color="#67DDF9"/>
<stop offset="0.12" stop-color="#5CB3CE"/>
<stop offset="0.24" stop-color="#538EA9"/>
<stop offset="0.37" stop-color="#4C718B"/>
<stop offset="0.5" stop-color="#465A73"/>
<stop offset="0.63" stop-color="#424A63"/>
<stop offset="0.79" stop-color="#404059"/>
<stop offset="0.99" stop-color="#3F3D56"/>
</linearGradient>
<linearGradient id="paint14_linear_30_342" x1="769.9" y1="222.33" x2="694.1" y2="178.65" gradientUnits="userSpaceOnUse">
<stop/>
<stop offset="0.98" stop-opacity="0"/>
</linearGradient>
<clipPath id="clip0_30_342">
<rect width="823.67" height="597" fill="white"/>
</clipPath>
</defs>
</svg>
