<svg width="1920" height="1080" viewBox="0 0 1920 1080" fill="none" xmlns="http://www.w3.org/2000/svg">
<path opacity="0.1" d="M1678 198.3C1678 588.7 1361.5 905.2 971.1 905.2C580.7 905.2 264.2 588.7 264.2 198.3C264.2 -192.1 580.7 155.1 971.1 155.1C1361.5 155.1 1678 -192 1678 198.3Z" fill="#68E1FD"/>
<path opacity="0.1" d="M952 1069.6C1392.78 1069.6 1750.1 999.13 1750.1 912.2C1750.1 825.27 1392.78 754.8 952 754.8C511.222 754.8 153.9 825.27 153.9 912.2C153.9 999.13 511.222 1069.6 952 1069.6Z" fill="#68E1FD"/>
<path d="M1478.4 891.9H518.3C494.7 891.9 474.5 873.8 473.3 851.5L433.5 144.8C432.2 122.5 450.4 104.4 474 104.4H1434.1C1457.7 104.4 1477.8 122.5 1479.1 144.8L1518.9 851.5C1520.1 873.8 1502 891.9 1478.4 891.9Z" fill="#D3D3D3"/>
<path d="M1485.3 102.3C1482.1 130.9 1455 154.1 1424.9 154.1C1421.6 154.1 1418.5 153.8 1415.5 153.3C1441.6 149 1463.6 127.8 1466.4 102.3H1485.3Z" fill="#D3D3D3"/>
<path d="M1355.1 894.6H389.1C365.4 894.6 348.1 876.4 350.6 853.9L429.6 142.9C432.1 120.4 453.4 102.2 477.1 102.2H1443.1C1466.8 102.2 1484.1 120.4 1481.6 142.9L1402.6 853.9C1400.1 876.4 1378.8 894.6 1355.1 894.6Z" fill="#F7F7F7"/>
<path d="M552.6 161.2C553.7 151.2 546 143.1 535.5 143.1C524.9 143.1 515.5 151.2 514.4 161.2C513.3 171.2 521 179.3 531.5 179.3C542 179.3 551.5 171.2 552.6 161.2ZM765.8 161.2C766.9 151.2 759.2 143.1 748.7 143.1C738.2 143.1 728.7 151.2 727.6 161.2C726.5 171.2 734.2 179.3 744.7 179.3C755.2 179.3 764.7 171.2 765.8 161.2ZM979.1 161.2C980.2 151.2 972.5 143.1 962 143.1C951.5 143.1 942 151.2 940.9 161.2C939.8 171.2 947.5 179.3 958 179.3C968.5 179.3 978 171.2 979.1 161.2ZM1192.3 161.2C1193.4 151.2 1185.7 143.1 1175.2 143.1C1164.6 143.1 1155.2 151.2 1154 161.2C1152.9 171.2 1160.6 179.3 1171.1 179.3C1181.7 179.3 1191.2 171.2 1192.3 161.2ZM1405.5 161.2C1406.6 151.2 1398.9 143.1 1388.4 143.1C1377.8 143.1 1368.4 151.2 1367.3 161.2C1366.2 171.2 1373.9 179.3 1384.4 179.3C1395 179.3 1404.4 171.2 1405.5 161.2Z" fill="#0B4870"/>
<path d="M529.6 171C495.1 165.1 472.7 136.2 476.5 102.3C480.8 63.8 517.3 32.5 558 32.5C598.7 32.5 628.3 63.8 624 102.3H605C608.2 73.7 586.2 50.5 556 50.5C525.8 50.5 498.6 73.8 495.5 102.3C492.7 127.5 509.3 148.9 535 153.3C535 153.3 536.7 157.1 534.4 163.3C532.1 169.6 529.6 171 529.6 171ZM745 171C710.4 165.1 688.1 136.2 691.9 102.3C696.2 63.8 732.7 32.5 773.4 32.5C814.1 32.5 843.7 63.8 839.4 102.3H820.5C823.7 73.7 801.7 50.5 771.5 50.5C741.3 50.5 714.1 73.8 711 102.3C708.2 127.5 724.8 148.9 750.5 153.3C750.5 153.3 752.2 157.1 749.9 163.3C747.4 169.6 745 171 745 171ZM960.3 171C925.8 165.1 903.4 136.2 907.2 102.3C911.5 63.8 948 32.5 988.7 32.5C1029.4 32.5 1059 63.8 1054.7 102.3H1035.7C1038.9 73.7 1016.9 50.5 986.7 50.5C956.5 50.5 929.3 73.8 926.2 102.3C923.4 127.5 940 148.9 965.7 153.3C965.7 153.3 967.4 157.1 965.1 163.3C962.7 169.6 960.3 171 960.3 171ZM1175.6 171C1141.1 165.1 1118.7 136.2 1122.5 102.3C1126.8 63.8 1163.3 32.5 1204 32.5C1244.7 32.5 1274.3 63.8 1270 102.3H1251C1254.2 73.7 1232.2 50.5 1202 50.5C1171.8 50.5 1144.6 73.8 1141.5 102.3C1138.7 127.5 1155.3 148.9 1181 153.3C1181 153.3 1182.7 157.1 1180.4 163.3C1178 169.6 1175.6 171 1175.6 171ZM1485.3 102.3H1466.3C1466.5 100.7 1466.6 99.2 1466.6 97.6C1466.6 95 1466.5 92.6 1466.1 90.2C1465.9 88.9 1465.7 87.6 1465.4 86.4C1465.3 85.6 1465.1 84.9 1464.8 84.2C1460.1 67.4 1445.9 54.8 1427.3 51.3C1424.1 50.7 1420.7 50.4 1417.2 50.4C1387 50.4 1359.9 73.6 1356.7 102.2C1353.9 127.4 1370.5 148.8 1396.2 153.2C1396.2 153.2 1397.9 157 1395.6 163.2C1393.3 169.4 1390.9 170.8 1390.9 170.8C1356.3 164.9 1334 136 1337.7 102.1C1342 63.6 1378.5 32.4 1419.2 32.4C1458.9 32.4 1488 62.2 1485.4 99.3C1485.5 100.4 1485.4 101.3 1485.3 102.3Z" fill="#68E1FD"/>
<path d="M595.2 829.3C594.2 829.3 593.5 828.5 593.6 827.6L660.9 221.8C661 220.9 661.9 220.1 662.9 220.1C663.9 220.1 664.6 220.9 664.5 221.8L597.2 827.6C597.1 828.5 596.2 829.3 595.2 829.3ZM784 829.3C783 829.3 782.3 828.5 782.4 827.6L849.7 221.8C849.8 220.9 850.7 220.1 851.7 220.1C852.7 220.1 853.4 220.9 853.3 221.8L786 827.6C785.8 828.5 784.9 829.3 784 829.3ZM972.7 829.3C971.7 829.3 971 828.5 971.1 827.6L1038.4 221.8C1038.5 220.9 1039.4 220.1 1040.4 220.1C1041.4 220.1 1042.1 220.9 1042 221.8L974.7 827.6C974.5 828.5 973.7 829.3 972.7 829.3ZM1161.4 829.3C1160.4 829.3 1159.7 828.5 1159.8 827.6L1227.1 221.8C1227.2 220.9 1228.1 220.1 1229.1 220.1C1230.1 220.1 1230.8 220.9 1230.7 221.8L1163.4 827.6C1163.3 828.5 1162.4 829.3 1161.4 829.3Z" fill="#0B4870"/>
<path d="M1379 345.9H485C484 345.9 483.3 345.1 483.4 344.2C483.5 343.3 484.4 342.5 485.4 342.5H1379.4C1380.4 342.5 1381.1 343.3 1381 344.2C1380.9 345.1 1380 345.9 1379 345.9ZM1359 526.3H465C464 526.3 463.3 525.5 463.4 524.6C463.5 523.7 464.4 522.9 465.4 522.9H1359.4C1360.4 522.9 1361.1 523.7 1361 524.6C1360.8 525.6 1359.9 526.3 1359 526.3ZM1338.9 706.8H444.9C443.9 706.8 443.2 706 443.3 705.1C443.4 704.2 444.3 703.4 445.3 703.4H1339.3C1340.3 703.4 1341 704.2 1340.9 705.1C1340.8 706 1339.9 706.8 1338.9 706.8Z" fill="#0B4870"/>
<path d="M521.2 677.2C483.3 677.2 455.7 648 459.7 612.2C463.7 576.4 497.7 547.2 535.6 547.2C573.5 547.2 601.1 576.4 597.1 612.2C593.2 648 559.1 677.2 521.2 677.2Z" fill="#68E1FD"/>
<path d="M471.9 969.9C471.5 957.8 470.9 941.7 470.4 929.6C470.7 937.9 471.5 960.4 471.9 969V969.9Z" fill="#FFC910"/>
<path d="M790 912.6C790.5 927.5 791.1 942.3 791.6 957.2C792 968.6 777.8 980.6 748.3 990.9C684.7 1013.2 574.2 1019.3 501.5 1004.5C462.5 996.6 442.3 984.2 441.8 971L440.2 926.4C440.7 939.6 460.9 951.9 499.9 959.9C572.6 974.7 683.1 968.6 746.7 946.3C776.2 936 790.5 924 790 912.6Z" fill="#68E1FD"/>
<g opacity="0.06">
<path d="M790 912.7C790.5 927.6 791.1 942.4 791.6 957.3C792 968.7 777.8 980.7 748.3 991C684.7 1013.3 574.2 1019.4 501.5 1004.6C462.5 996.7 442.3 984.3 441.8 971.1L440.2 926.5C440.7 939.7 460.9 952 499.9 960C572.6 974.8 683.1 968.7 746.7 946.4C776.2 936 790.5 924 790 912.7Z" fill="#231F20"/>
</g>
<path d="M730.3 879.2C803 894 810.3 924.1 746.7 946.4C683.1 968.7 572.6 974.8 499.9 960C427.2 945.2 419.9 915.1 483.5 892.8C547.2 870.5 657.7 864.4 730.3 879.2ZM519.7 953C579.9 965.3 671.4 960.2 724.1 941.7C776.8 923.2 770.7 898.3 710.5 886.1C650.3 873.9 558.8 878.9 506.1 897.4C453.4 915.9 459.5 940.8 519.7 953Z" fill="#68E1FD"/>
<g opacity="0.29">
<path d="M730.3 879.3C803 894.1 810.3 924.2 746.7 946.5C683.1 968.8 572.6 974.9 499.9 960.1C427.2 945.3 419.9 915.2 483.5 892.9C547.2 870.6 657.7 864.5 730.3 879.3ZM519.7 953.1C579.9 965.4 671.4 960.3 724.1 941.8C776.8 923.3 770.7 898.4 710.5 886.2C650.3 874 558.8 879 506.1 897.5C453.4 916 459.5 940.9 519.7 953.1Z" fill="white"/>
</g>
<path d="M710.6 886.1C770.8 898.4 776.9 923.3 724.2 941.7C671.5 960.2 580 965.2 519.8 953C459.6 940.7 453.5 915.8 506.2 897.4C558.8 878.9 650.4 873.8 710.6 886.1Z" fill="#68E1FD"/>
<path opacity="0.11" d="M506.1 902.9C558.8 884.4 650.3 879.4 710.5 891.6C740.5 897.7 757 906.9 759.6 916.9C762.6 904.8 745.9 893.2 710.5 886C650.3 873.8 558.8 878.8 506.1 897.3C479.6 906.6 468 917.5 470.6 927.6C472.8 919.2 484.5 910.5 506.1 902.9Z" fill="#231F20"/>
<g opacity="0.05">
<path d="M685.9 900L669.9 905.6C676.3 907.4 679.3 909.7 678.9 912.3C678.6 914.9 674.8 917.6 667.8 920.3L651.4 917C655.3 915.4 657.1 913.9 656.6 912.4C656.1 910.9 653.4 909.7 648.6 908.7C643.4 907.6 637.9 907.3 631.9 907.6C626 908 620.7 908.9 616.1 910.6C614.4 911.2 613.1 911.8 612.3 912.4C611.4 913 611 913.6 611 914.3C610.9 915.6 613.9 917.2 619.9 919.3C623.5 920.5 626.1 921.5 627.7 922.2C633.3 924.8 635.8 927.3 635 929.9C634.3 932.5 630.5 935 623.6 937.4C614.9 940.5 604.9 942.5 593.6 943.6C582.4 944.7 572.1 944.6 562.9 943.2L543.7 949.9L528.4 946.8L546.8 940.3C538.7 938 534.8 935.4 535.2 932.3C535.5 929.2 540.1 926.1 548.9 923L564.7 926.2C559.1 928.4 556.5 930.3 557 932.1C557.4 933.8 560.9 935.4 567.5 936.7C573.5 937.9 579.9 938.3 586.6 937.9C593.4 937.5 599.4 936.4 604.7 934.5C606.6 933.8 608.1 933.2 609.3 932.5C610.5 931.9 611.2 931.2 611.6 930.7C612.8 928.8 610 926.7 603.4 924.4C602.3 924 601.5 923.7 601 923.5C592.9 920.6 588.7 917.8 588.3 915.2C587.9 912.6 591.3 910 598.6 907.5C606.5 904.7 615.5 902.9 625.5 902C635.5 901.1 645.3 901.3 654.8 902.5L670.6 897L685.9 900Z" fill="#231F20"/>
</g>
<g opacity="0.43">
<path d="M685.9 893.7L669.9 899.3C676.3 901.1 679.3 903.4 678.9 906C678.6 908.6 674.8 911.3 667.8 914L651.4 910.7C655.3 909.1 657.1 907.6 656.6 906.1C656.1 904.6 653.4 903.3 648.6 902.4C643.4 901.3 637.9 901 631.9 901.3C626 901.7 620.7 902.6 616.1 904.3C614.4 904.9 613.1 905.5 612.3 906.1C611.4 906.7 611 907.3 611 908C610.9 909.3 613.9 910.9 619.9 913C623.5 914.2 626.1 915.2 627.7 915.9C633.3 918.5 635.8 921 635 923.6C634.3 926.2 630.5 928.7 623.6 931.1C614.9 934.2 604.9 936.2 593.6 937.3C582.4 938.4 572.1 938.3 562.9 936.9L543.7 943.6L528.4 940.5L546.8 934C538.7 931.7 534.8 929.1 535.2 926C535.5 922.9 540.1 919.8 548.9 916.7L564.7 919.9C559.1 922.1 556.5 924 557 925.8C557.4 927.5 560.9 929.1 567.5 930.4C573.5 931.6 579.9 932 586.6 931.6C593.4 931.2 599.4 930.1 604.7 928.2C606.6 927.5 608.1 926.9 609.3 926.2C610.5 925.6 611.2 924.9 611.6 924.4C612.8 922.5 610 920.4 603.4 918.1C602.3 917.7 601.5 917.4 601 917.2C592.9 914.2 588.7 911.5 588.3 908.9C587.9 906.3 591.3 903.7 598.6 901.2C606.5 898.4 615.5 896.6 625.5 895.7C635.5 894.8 645.3 895 654.8 896.2L670.6 890.7L685.9 893.7Z" fill="white"/>
</g>
<path d="M541.8 918.7C541.4 906.6 540.8 890.5 540.3 878.4C540.6 886.7 541.4 909.2 541.8 917.8V918.7Z" fill="#FFC910"/>
<path d="M860 861.4C860.5 876.3 861.1 891.1 861.6 906C862 917.4 847.8 929.4 818.3 939.7C754.7 962 644.2 968.1 571.5 953.3C532.5 945.4 512.3 933 511.8 919.8L510.2 875.2C510.7 888.4 530.9 900.7 569.9 908.7C642.6 923.5 753.1 917.4 816.7 895.1C846.1 884.8 860.4 872.8 860 861.4Z" fill="#68E1FD"/>
<g opacity="0.06">
<path d="M860 861.4C860.5 876.3 861.1 891.1 861.6 906C862 917.4 847.8 929.4 818.3 939.7C754.7 962 644.2 968.1 571.5 953.3C532.5 945.4 512.3 933 511.8 919.8L510.2 875.2C510.7 888.4 530.9 900.7 569.9 908.7C642.6 923.5 753.1 917.4 816.7 895.1C846.1 884.8 860.4 872.8 860 861.4Z" fill="#231F20"/>
</g>
<path d="M800.3 827.9C873 842.7 880.3 872.8 816.7 895.1C753.1 917.4 642.6 923.5 569.9 908.7C497.2 893.9 489.9 863.8 553.5 841.5C617.1 819.2 727.6 813.1 800.3 827.9ZM589.7 901.8C649.9 914.1 741.4 909 794.1 890.5C846.8 872 840.7 847.1 780.5 834.9C720.3 822.7 628.8 827.7 576.1 846.2C523.4 864.6 529.5 889.5 589.7 901.8Z" fill="#68E1FD"/>
<g opacity="0.26">
<path d="M800.3 827.7C873 842.5 880.3 872.6 816.7 894.9C753.1 917.2 642.6 923.3 569.9 908.5C497.2 893.7 489.9 863.6 553.5 841.3C617.1 819 727.6 812.9 800.3 827.7ZM589.7 901.5C649.9 913.8 741.4 908.7 794.1 890.2C846.8 871.7 840.7 846.8 780.5 834.6C720.3 822.4 628.8 827.4 576.1 845.9C523.4 864.4 529.5 889.3 589.7 901.5Z" fill="white"/>
</g>
<path d="M780.5 834.8C840.7 847.1 846.8 872 794.1 890.4C741.4 909 649.9 914 589.7 901.8C529.5 889.5 523.4 864.6 576.1 846.2C628.8 827.6 720.3 822.6 780.5 834.8Z" fill="#68E1FD"/>
<path opacity="0.11" d="M576.1 851.7C628.8 833.2 720.3 828.2 780.5 840.4C810.5 846.5 827 855.7 829.6 865.7C832.6 853.6 815.9 842 780.5 834.8C720.3 822.6 628.8 827.6 576.1 846.1C549.6 855.4 538 866.3 540.6 876.4C542.7 868 554.4 859.3 576.1 851.7Z" fill="#231F20"/>
<g opacity="0.05">
<path d="M755.8 848.8L739.8 854.4C746.2 856.2 749.2 858.5 748.8 861.1C748.5 863.7 744.7 866.4 737.7 869.1L721.3 865.8C725.2 864.2 727 862.7 726.5 861.2C726 859.7 723.3 858.5 718.5 857.5C713.3 856.4 707.8 856.1 701.8 856.4C695.9 856.8 690.6 857.7 686 859.4C684.3 860 683 860.6 682.2 861.2C681.3 861.8 680.9 862.4 680.9 863.1C680.8 864.4 683.8 866 689.8 868.1C693.4 869.3 696 870.3 697.6 871C703.2 873.6 705.7 876.1 704.9 878.7C704.2 881.3 700.4 883.8 693.5 886.2C684.8 889.3 674.8 891.3 663.5 892.4C652.3 893.5 642 893.4 632.8 892L613.6 898.7L598.3 895.6L616.7 889.1C608.6 886.8 604.7 884.2 605.1 881.1C605.4 878 610 874.9 618.8 871.8L634.6 875C629 877.2 626.4 879.1 626.9 880.9C627.3 882.6 630.8 884.2 637.4 885.5C643.4 886.7 649.8 887.1 656.5 886.7C663.3 886.3 669.3 885.2 674.6 883.3C676.5 882.6 678 882 679.2 881.3C680.4 880.7 681.1 880 681.5 879.5C682.7 877.6 679.9 875.5 673.3 873.2C672.2 872.8 671.4 872.5 670.9 872.3C662.8 869.4 658.6 866.6 658.2 864C657.8 861.4 661.2 858.8 668.5 856.3C676.4 853.5 685.4 851.7 695.4 850.8C705.4 849.9 715.2 850.1 724.7 851.3L740.5 845.8L755.8 848.8Z" fill="#231F20"/>
</g>
<g opacity="0.43">
<path d="M755.8 842.5L739.8 848.1C746.2 849.9 749.2 852.2 748.8 854.8C748.5 857.4 744.7 860.1 737.7 862.8L721.3 859.5C725.2 857.9 727 856.4 726.5 854.9C726 853.4 723.3 852.1 718.5 851.2C713.3 850.1 707.8 849.8 701.8 850.1C695.9 850.5 690.6 851.4 686 853.1C684.3 853.7 683 854.3 682.2 854.9C681.3 855.5 680.9 856.1 680.9 856.8C680.8 858.1 683.8 859.7 689.8 861.8C693.4 863 696 864 697.6 864.7C703.2 867.3 705.7 869.8 704.9 872.4C704.2 875 700.4 877.5 693.5 879.9C684.8 883 674.8 885 663.5 886.1C652.3 887.2 642 887.1 632.8 885.7L613.6 892.4L598.3 889.3L616.7 882.8C608.6 880.5 604.7 877.9 605.1 874.8C605.4 871.7 610 868.6 618.8 865.5L634.6 868.7C629 870.9 626.4 872.8 626.9 874.6C627.3 876.3 630.8 877.9 637.4 879.2C643.4 880.4 649.8 880.8 656.5 880.4C663.3 880 669.3 878.9 674.6 877C676.5 876.3 678 875.7 679.2 875C680.4 874.4 681.1 873.7 681.5 873.2C682.7 871.3 679.9 869.2 673.3 866.9C672.2 866.5 671.4 866.2 670.9 866C662.8 863 658.6 860.3 658.2 857.7C657.8 855.1 661.2 852.5 668.5 850C676.4 847.2 685.4 845.4 695.4 844.5C705.4 843.6 715.2 843.8 724.7 845L740.5 839.5L755.8 842.5Z" fill="white"/>
</g>
<path d="M1048.4 934.4C1048 922.3 1047.4 906.2 1046.9 894.1C1047.2 902.4 1048 924.9 1048.4 933.5C1048.3 933.8 1048.3 934.1 1048.4 934.4Z" fill="#FFC910"/>
<path d="M1366.5 877.1C1367 892 1367.6 906.8 1368.1 921.7C1368.5 933.1 1354.3 945.1 1324.8 955.4C1261.2 977.7 1150.7 983.8 1078 969C1039 961.1 1018.8 948.7 1018.3 935.5L1016.7 890.9C1017.2 904.1 1037.4 916.4 1076.4 924.4C1149.1 939.2 1259.6 933.1 1323.2 910.8C1352.7 900.5 1366.9 888.5 1366.5 877.1Z" fill="#68E1FD"/>
<g opacity="0.06">
<path d="M1366.5 877.2C1367 892.1 1367.6 906.9 1368.1 921.8C1368.5 933.2 1354.3 945.2 1324.8 955.5C1261.2 977.8 1150.7 983.9 1078 969.1C1039 961.2 1018.8 948.8 1018.3 935.6L1016.7 891C1017.2 904.2 1037.4 916.5 1076.4 924.5C1149.1 939.3 1259.6 933.2 1323.2 910.9C1352.7 900.5 1366.9 888.5 1366.5 877.2Z" fill="#231F20"/>
</g>
<path d="M1306.8 843.7C1379.5 858.5 1386.8 888.6 1323.2 910.9C1259.6 933.2 1149.1 939.3 1076.4 924.5C1003.7 909.7 996.4 879.6 1060 857.3C1123.6 835 1234.1 828.9 1306.8 843.7ZM1096.2 917.5C1156.4 929.8 1247.9 924.7 1300.6 906.2C1353.3 887.7 1347.2 862.8 1287 850.6C1226.8 838.4 1135.3 843.4 1082.6 861.9C1029.9 880.3 1036 905.3 1096.2 917.5Z" fill="#68E1FD"/>
<path opacity="0.24" d="M1306.8 843.7C1379.5 858.5 1386.8 888.6 1323.2 910.9C1259.6 933.2 1149.1 939.3 1076.4 924.5C1003.7 909.7 996.4 879.6 1060 857.3C1123.6 835 1234.1 828.9 1306.8 843.7ZM1096.2 917.5C1156.4 929.8 1247.9 924.7 1300.6 906.2C1353.3 887.7 1347.2 862.8 1287 850.6C1226.8 838.4 1135.3 843.4 1082.6 861.9C1029.9 880.3 1036 905.3 1096.2 917.5Z" fill="white"/>
<path d="M1287 850.6C1347.2 862.9 1353.3 887.8 1300.6 906.2C1247.9 924.7 1156.4 929.7 1096.2 917.5C1036 905.2 1029.9 880.3 1082.6 861.9C1135.3 843.4 1226.8 838.3 1287 850.6Z" fill="#68E1FD"/>
<path opacity="0.11" d="M1082.6 867.4C1135.3 848.9 1226.8 843.9 1287 856.1C1317 862.2 1333.5 871.4 1336.1 881.4C1339.1 869.3 1322.4 857.7 1287 850.5C1226.8 838.3 1135.3 843.3 1082.6 861.8C1056.1 871.1 1044.5 882 1047.1 892.1C1049.2 883.7 1060.9 875 1082.6 867.4Z" fill="#231F20"/>
<g opacity="0.05">
<path d="M1262.3 864.5L1246.3 870.1C1252.7 871.9 1255.7 874.2 1255.3 876.8C1255 879.4 1251.2 882.1 1244.2 884.8L1227.8 881.5C1231.7 879.9 1233.5 878.4 1233 876.9C1232.5 875.4 1229.8 874.2 1225 873.2C1219.8 872.1 1214.3 871.8 1208.3 872.1C1202.4 872.5 1197.1 873.4 1192.5 875.1C1190.8 875.7 1189.5 876.3 1188.7 876.9C1187.8 877.5 1187.4 878.1 1187.4 878.8C1187.3 880.1 1190.3 881.7 1196.3 883.8C1199.9 885 1202.5 886 1204.1 886.7C1209.7 889.3 1212.2 891.8 1211.4 894.4C1210.7 897 1206.9 899.5 1200 901.9C1191.3 905 1181.3 907 1170 908.1C1158.8 909.2 1148.5 909.1 1139.3 907.7L1120.1 914.4L1104.8 911.3L1123.2 904.8C1115.1 902.5 1111.2 899.9 1111.6 896.8C1111.9 893.7 1116.5 890.6 1125.3 887.5L1141.1 890.7C1135.5 892.9 1132.9 894.8 1133.4 896.6C1133.8 898.3 1137.3 899.9 1143.9 901.2C1149.9 902.4 1156.3 902.8 1163 902.4C1169.8 902 1175.8 900.9 1181.1 899C1183 898.3 1184.5 897.7 1185.7 897C1186.9 896.4 1187.6 895.7 1188 895.2C1189.2 893.3 1186.4 891.2 1179.8 888.9C1178.7 888.5 1177.9 888.2 1177.4 888C1169.3 885.1 1165.1 882.3 1164.7 879.7C1164.3 877.1 1167.7 874.5 1175 872C1182.9 869.2 1191.9 867.4 1201.9 866.5C1211.9 865.6 1221.7 865.8 1231.2 867L1247 861.5L1262.3 864.5Z" fill="#231F20"/>
</g>
<g opacity="0.43">
<path d="M1262.3 858.2L1246.3 863.8C1252.7 865.6 1255.7 867.9 1255.3 870.5C1255 873.1 1251.2 875.8 1244.2 878.5L1227.8 875.2C1231.7 873.6 1233.5 872.1 1233 870.6C1232.5 869.1 1229.8 867.8 1225 866.9C1219.8 865.8 1214.3 865.5 1208.3 865.8C1202.4 866.2 1197.1 867.1 1192.5 868.8C1190.8 869.4 1189.5 870 1188.7 870.6C1187.8 871.2 1187.4 871.8 1187.4 872.5C1187.3 873.8 1190.3 875.4 1196.3 877.5C1199.9 878.7 1202.5 879.7 1204.1 880.4C1209.7 883 1212.2 885.5 1211.4 888.1C1210.7 890.7 1206.9 893.2 1200 895.6C1191.3 898.7 1181.3 900.7 1170 901.8C1158.8 902.9 1148.5 902.8 1139.3 901.4L1120.1 908.1L1104.8 905L1123.2 898.5C1115.1 896.2 1111.2 893.6 1111.6 890.5C1111.9 887.4 1116.5 884.3 1125.3 881.2L1141.1 884.4C1135.5 886.6 1132.9 888.5 1133.4 890.3C1133.8 892 1137.3 893.6 1143.9 894.9C1149.9 896.1 1156.3 896.5 1163 896.1C1169.8 895.7 1175.8 894.6 1181.1 892.7C1183 892 1184.5 891.4 1185.7 890.7C1186.9 890.1 1187.6 889.4 1188 888.9C1189.2 887 1186.4 884.9 1179.8 882.6C1178.7 882.2 1177.9 881.9 1177.4 881.7C1169.3 878.7 1165.1 876 1164.7 873.4C1164.3 870.8 1167.7 868.2 1175 865.7C1182.9 862.9 1191.9 861.1 1201.9 860.2C1211.9 859.3 1221.7 859.5 1231.2 860.7L1247 855.2L1262.3 858.2Z" fill="white"/>
</g>
<path d="M815.9 982.8C815.5 970.7 814.9 954.6 814.4 942.5C814.7 950.8 815.5 973.3 815.9 981.9V982.8Z" fill="#FFC910"/>
<path d="M1134.1 925.6C1134.6 940.5 1135.2 955.3 1135.7 970.2C1136.1 981.6 1121.9 993.6 1092.4 1003.9C1028.8 1026.2 918.3 1032.3 845.6 1017.5C806.6 1009.6 786.4 997.2 785.9 984L784.3 939.4C784.8 952.6 805 964.9 844 972.9C916.7 987.7 1027.2 981.6 1090.8 959.3C1120.3 948.9 1134.5 937 1134.1 925.6Z" fill="#68E1FD"/>
<g opacity="0.06">
<path d="M1134.1 925.6C1134.6 940.5 1135.2 955.3 1135.7 970.2C1136.1 981.6 1121.9 993.6 1092.4 1003.9C1028.8 1026.2 918.3 1032.3 845.6 1017.5C806.6 1009.6 786.4 997.2 785.9 984L784.3 939.4C784.8 952.6 805 964.9 844 972.9C916.7 987.7 1027.2 981.6 1090.8 959.3C1120.3 949 1134.5 937 1134.1 925.6Z" fill="#231F20"/>
</g>
<path d="M1074.4 892.1C1147.1 906.9 1154.4 937 1090.8 959.3C1027.2 981.6 916.7 987.7 844 972.9C771.3 958.1 764 928 827.6 905.7C891.2 883.4 1001.7 877.3 1074.4 892.1ZM863.8 966C924 978.3 1015.5 973.2 1068.2 954.7C1120.9 936.2 1114.8 911.3 1054.6 899.1C994.4 886.9 902.9 891.9 850.2 910.4C797.5 928.8 803.6 953.7 863.8 966Z" fill="#68E1FD"/>
<g opacity="0.29">
<path d="M1074.4 891.7C1147.1 906.5 1154.4 936.6 1090.8 958.9C1027.2 981.2 916.7 987.3 844 972.5C771.3 957.7 764 927.6 827.6 905.3C891.2 883 1001.7 876.9 1074.4 891.7ZM863.8 965.5C924 977.8 1015.5 972.7 1068.2 954.2C1120.9 935.7 1114.8 910.8 1054.6 898.6C994.4 886.4 902.9 891.4 850.2 909.9C797.5 928.3 803.6 953.3 863.8 965.5Z" fill="white"/>
</g>
<path d="M1054.6 899C1114.8 911.3 1120.9 936.2 1068.2 954.6C1015.5 973.1 924 978.1 863.8 965.9C803.6 953.6 797.5 928.7 850.2 910.3C902.9 891.8 994.4 886.8 1054.6 899Z" fill="#68E1FD"/>
<path opacity="0.11" d="M850.2 915.9C902.9 897.4 994.4 892.4 1054.6 904.6C1084.6 910.7 1101.1 919.9 1103.7 929.9C1106.7 917.8 1090 906.2 1054.6 899C994.4 886.8 902.9 891.8 850.2 910.3C823.7 919.6 812.1 930.5 814.7 940.6C816.8 932.2 828.5 923.5 850.2 915.9Z" fill="#231F20"/>
<g opacity="0.05">
<path d="M1029.9 912.9L1013.9 918.5C1020.3 920.3 1023.3 922.6 1022.9 925.2C1022.6 927.8 1018.8 930.5 1011.8 933.2L995.4 929.9C999.3 928.3 1001.1 926.8 1000.6 925.3C1000.1 923.8 997.4 922.6 992.6 921.6C987.4 920.5 981.9 920.2 975.9 920.5C970 920.9 964.7 921.8 960.1 923.5C958.4 924.1 957.1 924.7 956.3 925.3C955.4 925.9 955 926.5 955 927.2C954.9 928.5 957.9 930.1 963.9 932.2C967.5 933.4 970.1 934.4 971.7 935.1C977.3 937.7 979.8 940.2 979 942.8C978.3 945.4 974.5 947.9 967.6 950.3C958.9 953.4 948.9 955.4 937.6 956.5C926.4 957.6 916.1 957.5 906.9 956.1L887.7 962.8L872.4 959.7L890.8 953.2C882.7 950.9 878.8 948.3 879.2 945.2C879.5 942.1 884.1 939 892.9 935.9L908.7 939.1C903.1 941.3 900.5 943.2 901 945C901.4 946.7 904.9 948.3 911.5 949.6C917.5 950.8 923.9 951.2 930.6 950.8C937.4 950.4 943.4 949.3 948.7 947.4C950.6 946.7 952.1 946.1 953.3 945.4C954.5 944.8 955.2 944.1 955.6 943.6C956.8 941.7 954 939.6 947.4 937.3C946.3 936.9 945.5 936.6 945 936.4C936.9 933.5 932.7 930.7 932.3 928.1C931.9 925.5 935.3 922.9 942.6 920.4C950.5 917.6 959.5 915.8 969.5 914.9C979.5 914 989.3 914.2 998.8 915.4L1014.6 909.9L1029.9 912.9Z" fill="#231F20"/>
</g>
<g opacity="0.43">
<path d="M1029.9 906.7L1013.9 912.3C1020.3 914.1 1023.3 916.4 1022.9 919C1022.6 921.6 1018.8 924.3 1011.8 927L995.4 923.7C999.3 922.1 1001.1 920.6 1000.6 919.1C1000.1 917.6 997.4 916.3 992.6 915.4C987.4 914.3 981.9 914 975.9 914.3C970 914.7 964.7 915.6 960.1 917.3C958.4 917.9 957.1 918.5 956.3 919.1C955.4 919.7 955 920.3 955 921C954.9 922.3 957.9 923.9 963.9 926C967.5 927.2 970.1 928.2 971.7 928.9C977.3 931.5 979.8 934 979 936.6C978.3 939.2 974.5 941.7 967.6 944.1C958.9 947.2 948.9 949.2 937.6 950.3C926.4 951.4 916.1 951.3 906.9 949.9L887.7 956.6L872.4 953.5L890.8 947C882.7 944.7 878.8 942.1 879.2 939C879.5 935.9 884.1 932.8 892.9 929.7L908.7 932.9C903.1 935.1 900.5 937 901 938.8C901.4 940.5 904.9 942.1 911.5 943.4C917.5 944.6 923.9 945 930.6 944.6C937.4 944.2 943.4 943.1 948.7 941.2C950.6 940.5 952.1 939.9 953.3 939.2C954.5 938.6 955.2 937.9 955.6 937.4C956.8 935.5 954 933.4 947.4 931.1C946.3 930.7 945.5 930.4 945 930.2C936.9 927.2 932.7 924.5 932.3 921.9C931.9 919.3 935.3 916.7 942.6 914.2C950.5 911.4 959.5 909.6 969.5 908.7C979.5 907.8 989.3 908 998.8 909.2L1014.6 903.7L1029.9 906.7Z" fill="white"/>
</g>
<path d="M788.2 865.1C787.8 853 787.2 836.9 786.7 824.8C787 833.1 787.8 855.6 788.2 864.2C788.1 864.5 788.1 864.8 788.2 865.1Z" fill="#FFC910"/>
<path d="M1106.3 807.8C1106.8 822.7 1107.4 837.5 1107.9 852.4C1108.3 863.8 1094.1 875.8 1064.6 886.1C1001 908.4 890.5 914.5 817.8 899.7C778.8 891.8 758.6 879.4 758.1 866.2L756.5 821.6C757 834.8 777.2 847.1 816.2 855.1C888.9 869.9 999.4 863.8 1063 841.5C1092.5 831.2 1106.7 819.2 1106.3 807.8Z" fill="#68E1FD"/>
<g opacity="0.06">
<path d="M1106.3 807.8C1106.8 822.7 1107.4 837.5 1107.9 852.4C1108.3 863.8 1094.1 875.8 1064.6 886.1C1001 908.4 890.5 914.5 817.8 899.7C778.8 891.8 758.6 879.4 758.1 866.2L756.5 821.6C757 834.8 777.2 847.1 816.2 855.1C888.9 869.9 999.4 863.8 1063 841.5C1092.5 831.2 1106.7 819.2 1106.3 807.8Z" fill="#231F20"/>
</g>
<path d="M1046.6 774.3C1119.3 789.1 1126.6 819.2 1063 841.5C999.4 863.8 888.9 869.9 816.2 855.1C743.5 840.3 736.2 810.2 799.8 787.9C863.4 765.6 973.9 759.5 1046.6 774.3ZM836 848.2C896.2 860.5 987.7 855.4 1040.4 836.9C1093.1 818.4 1087 793.5 1026.8 781.3C966.6 769.1 875.1 774.1 822.4 792.6C769.7 811 775.8 835.9 836 848.2Z" fill="#68E1FD"/>
<g opacity="0.29">
<path d="M1046.6 774.3C1119.3 789.1 1126.6 819.2 1063 841.5C999.4 863.8 888.9 869.9 816.2 855.1C743.5 840.3 736.2 810.2 799.8 787.9C863.4 765.6 973.9 759.6 1046.6 774.3ZM836 848.2C896.2 860.5 987.7 855.4 1040.4 836.9C1093.1 818.4 1087 793.5 1026.8 781.3C966.6 769.1 875.1 774.1 822.4 792.6C769.7 811 775.8 835.9 836 848.2Z" fill="white"/>
</g>
<path d="M1026.8 781.3C1087 793.6 1093.1 818.5 1040.4 836.9C987.7 855.4 896.2 860.4 836 848.2C775.8 835.9 769.7 811 822.4 792.6C875.1 774.1 966.6 769 1026.8 781.3Z" fill="#68E1FD"/>
<path opacity="0.11" d="M822.4 798.1C875.1 779.6 966.6 774.6 1026.8 786.8C1056.8 792.9 1073.3 802.1 1075.9 812.1C1078.9 800 1062.2 788.4 1026.8 781.2C966.6 769 875.1 774 822.4 792.5C795.9 801.8 784.3 812.7 786.9 822.8C789 814.4 800.7 805.7 822.4 798.1Z" fill="#231F20"/>
<g opacity="0.05">
<path d="M1002.1 795.2L986.1 800.8C992.5 802.6 995.5 804.9 995.1 807.5C994.8 810.1 991 812.8 984 815.5L967.6 812.2C971.5 810.6 973.3 809.1 972.8 807.6C972.3 806.1 969.6 804.9 964.8 803.9C959.6 802.8 954.1 802.5 948.1 802.8C942.2 803.2 936.9 804.1 932.3 805.8C930.6 806.4 929.3 807 928.5 807.6C927.6 808.2 927.2 808.8 927.2 809.5C927.1 810.8 930.1 812.4 936.1 814.5C939.7 815.7 942.3 816.7 943.9 817.4C949.5 820 952 822.5 951.2 825.1C950.5 827.7 946.7 830.2 939.8 832.6C931.1 835.7 921.1 837.7 909.8 838.8C898.6 839.9 888.3 839.8 879.1 838.4L859.9 845.1L844.6 842L863 835.5C854.9 833.2 851 830.6 851.4 827.5C851.7 824.4 856.3 821.3 865.1 818.2L880.9 821.4C875.3 823.6 872.7 825.5 873.2 827.3C873.6 829 877.1 830.6 883.7 831.9C889.7 833.1 896.1 833.5 902.8 833.1C909.6 832.7 915.6 831.6 920.9 829.7C922.8 829 924.3 828.4 925.5 827.7C926.7 827.1 927.4 826.4 927.8 825.9C929 824 926.2 821.9 919.6 819.6C918.5 819.2 917.7 818.9 917.2 818.7C909.1 815.8 904.9 813 904.5 810.4C904.1 807.8 907.5 805.2 914.8 802.7C922.7 799.9 931.7 798.1 941.7 797.2C951.7 796.3 961.5 796.5 971 797.7L986.8 792.2L1002.1 795.2Z" fill="#231F20"/>
</g>
<g opacity="0.43">
<path d="M1002.1 788.9L986.1 794.5C992.5 796.3 995.5 798.6 995.1 801.2C994.8 803.8 991 806.5 984 809.2L967.6 805.9C971.5 804.3 973.3 802.8 972.8 801.3C972.3 799.8 969.6 798.5 964.8 797.6C959.6 796.5 954.1 796.2 948.1 796.5C942.2 796.9 936.9 797.8 932.3 799.5C930.6 800.1 929.3 800.7 928.5 801.3C927.6 801.9 927.2 802.5 927.2 803.2C927.1 804.5 930.1 806.1 936.1 808.2C939.7 809.4 942.3 810.4 943.9 811.1C949.5 813.7 952 816.2 951.2 818.8C950.5 821.4 946.7 823.9 939.8 826.3C931.1 829.4 921.1 831.4 909.8 832.5C898.6 833.6 888.3 833.5 879.1 832.1L859.9 838.8L844.6 835.7L863 829.2C854.9 826.9 851 824.3 851.4 821.2C851.7 818.1 856.3 815 865.1 811.9L880.9 815.1C875.3 817.3 872.7 819.2 873.2 821C873.6 822.7 877.1 824.3 883.7 825.6C889.7 826.8 896.1 827.2 902.8 826.8C909.6 826.4 915.6 825.3 920.9 823.4C922.8 822.7 924.3 822.1 925.5 821.4C926.7 820.8 927.4 820.1 927.8 819.6C929 817.7 926.2 815.6 919.6 813.3C918.5 812.9 917.7 812.6 917.2 812.4C909.1 809.4 904.9 806.7 904.5 804.1C904.1 801.5 907.5 798.9 914.8 796.4C922.7 793.6 931.7 791.8 941.7 790.9C951.7 790 961.5 790.2 971 791.4L986.8 785.9L1002.1 788.9Z" fill="white"/>
</g>
<path d="M337.3 829.8C337.3 829.9 337.3 829.9 337.3 829.8C330.1 864.2 333.5 911.2 331.9 937C332.3 937.1 341.7 938.3 341.7 938.3C341.7 938.3 364.1 829.5 368.1 808.7C368.4 807.2 368.6 805.9 368.6 804.7C369.6 789 355.4 788.2 347.5 801.2C346.2 803.3 345 805.7 343.9 808.2C343.5 809.2 343 810.3 342.6 811.4C341.3 814.8 340.1 818.4 339.1 822.3L339 822.7L338.1 826L338 826.3C337.8 827.5 337.5 828.6 337.3 829.8Z" fill="#FCD2B1"/>
<path d="M379.6 706.8C379.3 709.6 377.8 723.1 376 739.1C374.4 752.5 372.7 767.6 371.4 779.5C370.4 788.5 369.7 795.6 369.4 799C369.2 801.1 369 803 368.6 804.8V804.9C365.2 820.6 354.4 821.5 347.8 817.8C346.9 817.3 346 816.7 345.3 816.1C343.8 814.7 342.8 813.1 342.5 811.5C342.1 808.3 341.7 803.9 341.3 798.7V798.4C340.5 788.2 339.8 775.1 339.2 762.4C338.5 746.7 338 731.7 337.9 723.2C337.9 722.7 337.9 722.3 337.8 721.8C337.7 695.7 361.7 679 376.6 687.1C376.8 687.2 376.9 687.3 377.1 687.4C377.3 687.6 377.5 687.7 377.7 687.7C379.4 688.8 380 692.7 380 697.2C380.1 700.3 379.8 703.8 379.6 706.8ZM394.8 836.4C394.1 872.4 405.2 918.3 408.1 944.4C408.5 944.4 417.2 943.2 417.2 943.2C417.2 943.2 418.9 829.5 419 807.7C419 806.2 418.9 804.8 418.8 803.6C417 787.8 404.2 790.5 399.2 805.3C398.4 807.7 397.7 810.4 397.1 813.2C396.9 814.3 396.7 815.5 396.5 816.7C395.9 820.4 395.5 824.3 395.2 828.5V828.9C395.1 830.1 395 831.2 395 832.4V832.7C394.8 833.9 394.8 835.1 394.8 836.4Z" fill="#FCD2B1"/>
<path d="M402.2 821.7C401.3 821.5 400.4 821.1 399.7 820.6C398.1 819.6 396.9 818.3 396.4 816.7C395.5 813.6 394.3 809.3 393.1 804.2V804.1L393 804C390.6 794.1 387.7 781.3 385 768.8C381.7 753.4 378.7 738.5 377.2 730C377.1 729.5 375.8 723.4 375.7 722.9C371.1 696.7 391.5 679.6 406.4 684.6C406.6 684.7 406.8 684.7 407 684.8C410 686 410.8 696.5 411.5 703.6C412.2 710.7 417.2 784.3 418.5 797.6C418.7 799.7 418.8 801.7 418.8 803.6C418.4 820.1 408.8 823.7 402.2 821.7ZM358.3 664.7C358.3 664.7 358.1 664 349.4 671.2C347.9 667.9 347 661.2 341.7 655.8C333.9 648 327.3 640.9 314.3 618.5C312.7 615.7 312.1 612.4 312.9 609.2C316 595.9 324.9 564.9 324.9 564.9L329.6 566.1L346.3 570.4C346.3 570.4 335.1 595.8 331.4 608.7C331 610.1 331.1 611.5 331.7 612.8C339.7 629.5 358.3 664.7 358.3 664.7Z" fill="#FCD2B1"/>
<path d="M345.2 631.1C345.2 631.1 326 655.5 327.9 680.1C328.7 690.3 334.8 699.6 335.9 709.9C336.1 711.4 340.2 809.1 340.4 817.3C340.4 817.3 359.8 823.2 370.4 822.3C383.5 821.2 415.6 821.3 418.9 821.3C418.9 818.7 418.9 677.2 393.3 628.2C368.4 631.7 345.2 631.1 345.2 631.1Z" fill="#0E538C"/>
<path d="M404.1 580.4C402.9 587.3 399.1 594.4 393.8 600.3C392.8 601.9 392.1 606.8 391.9 612V612.1C391.6 619 392 626.5 393.4 628.1C385.7 634.8 358 640.2 345.3 631.1C346.6 619.8 341.6 594.9 338.2 582.3C337.7 580.4 337.2 578.7 336.8 577.4C333.6 567.8 366 535.6 366 535.6L382.6 528.1C382.6 528.1 397.5 533.5 402.7 538.4C399.1 544.6 395.8 549.8 403.5 568.6C404.7 572.3 404.8 576.4 404.1 580.4Z" fill="#68E1FD"/>
<path d="M400.2 470.4C400.2 470.4 418.7 525.4 373.8 521.6C340.9 517.7 365.8 490.3 366 488.6C366.1 486.8 381.9 466.1 381.9 466.1L400.2 470.4ZM503.2 571C503.5 574.7 501.4 580.9 493 582C492.6 582.2 491.7 582.6 490.6 583.3C485.2 586.6 472.5 595.2 459.8 603.3C459.5 603.5 459.3 603.6 459 603.8C458.1 604.3 457.3 604.9 456.5 605.4C444 613.2 432.2 620 427.9 620.3C419.9 617.6 403.4 591.4 394.2 558.6C392 550.8 395.3 542.5 402.6 538.5C402.6 538.5 408 542.6 410.3 546.5C416.9 557.7 431.5 594.6 432.9 598.3C439.7 595.2 459.6 583.2 479.4 574.7C483.8 572.8 485.5 571.1 487.1 568.3C488.6 565.4 492.2 558.6 495.3 555.4C497 553.7 498.7 554.2 495.5 562.6L494.7 564.1C494.7 564.1 502 566.1 502.8 569.3C503 569.8 503.2 570.4 503.2 571Z" fill="#FFE3CA"/>
<path d="M386.4 450.5C386.5 450.6 389.7 449.1 390 449C392.6 448.3 395.5 448.2 398 449.3C404.5 452.1 407.7 461.6 406.2 468.2C404.5 475.5 397.1 478.3 390.3 478.9C386.9 479.2 383.9 481.6 382.7 484.8C380.8 489.6 384.2 494.1 383.4 498.9C382.8 502.3 380.1 503.7 378.3 506.3C376.4 509.2 376.7 512.4 378.7 515.3C382.4 520.6 385.3 528.5 380.8 534.5C378.7 537.3 378.5 540.7 379.7 543.9C381.1 547.5 384.6 549.5 386.5 552.9C389.6 558.4 390 565.7 387.2 571.4C384.5 576.9 378.1 580.3 372.1 580.6C367.9 580.8 363.1 580 359.2 581.7C355.7 583.3 353.8 586.9 350.3 588.7C343.3 592.1 332.9 590.3 329.3 582.7C327.2 578.2 321.8 579 317.8 577.6C313 576 309.1 571.8 308 566.9C307.2 563.3 307.8 559.4 309.2 555.9C310.2 553.6 311.5 551.6 313.1 549.6C314.7 547.6 316.8 545.5 316.6 542.7C316.3 538.5 313.1 535.3 311.7 531.5C310.8 529.2 310.3 526.8 310.3 524.3C310.3 516.8 315.6 511.3 321.7 507.7C322.2 507.4 322.6 507.2 323.1 506.9C331.1 501.9 334.3 499.1 333.8 485.5C333.2 471.9 334.5 451 365.8 446.8C370 445.7 381.4 446.4 386.4 450.5ZM439.8 953C431.9 954.4 423 953 419.6 953.6C416.8 954.1 408.7 954.4 406.4 954.5C404.1 954.6 404.1 943.3 407.3 942.2C407.3 942.2 408 942.5 409.3 942.7C411.3 943 414.5 943.1 418.6 941.9C424.6 944.4 424.8 945.4 431.6 946.8C434.6 947.4 438 948.4 440.3 949.4C443.3 950.8 444.3 952.2 439.8 953ZM359 953.2C351.1 951.9 343.2 947.5 339.8 946.9C337 946.4 329.2 944 327.1 943.3C325 942.6 328.7 932 332.1 932C332.1 932 332.7 932.5 333.9 933.2C335.6 934.1 338.7 935.4 342.9 935.6C347.7 939.9 347.5 941 353.5 944.6C356.1 946.2 359 948.3 360.8 950C363 952.3 363.4 954 359 953.2Z" fill="#0B4870"/>
<path d="M1556.6 534.6C1556.6 534.6 1553.3 545.3 1556.6 549.6C1548.7 555.8 1534.5 553.9 1534.5 553.9C1534.5 553.9 1538.8 549.5 1534.5 534.6C1530.2 519.7 1556.6 534.6 1556.6 534.6Z" fill="#FCD2B1"/>
<path d="M1601.3 971C1609.2 970.3 1617 966.1 1620.4 965.8C1623.2 965.5 1630.9 963.5 1633.1 963C1635.2 962.4 1631.4 949.5 1628 949.1C1628 949.1 1627.4 949.6 1626.3 950.3C1624.6 951.2 1621.6 952.3 1617.3 952.1C1612.5 956.7 1612.7 958 1606.8 961.6C1604.2 963.2 1601.4 965.3 1599.6 967.2C1597.3 969.4 1596.9 971.4 1601.3 971Z" fill="#0B4870"/>
<path d="M1626.1 943.3C1626.1 943.3 1627.4 948.7 1628.4 949.7C1622.3 956.6 1617.2 952.9 1617.2 952.9V952L1615.7 945.3L1626.1 943.3ZM1552.8 603.7C1552.8 603.7 1549 643.3 1541.6 656.6C1535.4 667.8 1487.4 684.4 1484.2 687.9C1479 693.6 1474.1 687.5 1468.1 690.8C1466.1 691.9 1461.1 692.9 1458.4 693.5C1455.6 694.1 1457.1 689.9 1465.6 683.1C1470.5 680.4 1479.1 680.6 1479.4 680.3C1479.7 680 1514.5 657.1 1516 652.5C1517.5 647.9 1522.8 596 1522.8 596L1552.8 603.7Z" fill="#FCD2B1"/>
<path d="M1489.5 967.8C1497.2 969.6 1505.9 968.1 1509.3 968.9C1512.1 969.5 1520 970.1 1522.2 970.2C1524.4 970.3 1524.8 956.9 1521.8 955.4C1521.8 955.4 1521.1 955.7 1519.8 956C1517.9 956.3 1514.7 956.4 1510.7 954.9C1504.7 957.7 1504.5 959 1497.8 960.6C1494.9 961.3 1491.5 962.4 1489.2 963.6C1486.2 965 1485.2 966.7 1489.5 967.8Z" fill="#0B4870"/>
<path d="M1521.8 949.3C1521.8 949.3 1521.3 954.8 1522 956.2C1514.1 960.8 1510.4 955.7 1510.4 955.7L1510.7 954.8L1511.4 948L1521.8 949.3Z" fill="#FCD2B1"/>
<path d="M1591.5 739.5C1591.5 739.5 1607.9 706.2 1584.6 679.9C1584.6 679.9 1562.8 688.1 1545.7 688.1C1532.3 688.2 1525.5 686.3 1525.5 686.3C1525.5 686.3 1520.9 711 1520.1 750L1591.5 739.5ZM1539.9 853.4C1539.9 853.5 1539.9 853.5 1539.9 853.4C1539.9 886.9 1528.3 929.8 1524.2 954C1523.8 954 1523.3 954 1522.9 953.9C1514 953.4 1509.1 952.1 1509.1 952.1L1509.2 949.5C1512.2 910.4 1511.5 846.3 1511.8 826C1511.8 824.6 1511.9 823.3 1512.2 822.1C1514.7 807.4 1529.8 810.3 1535.4 824.3C1536.3 826.6 1537.1 829.1 1537.7 831.7C1537.9 832.8 1538.2 833.8 1538.4 835C1539 838.5 1539.5 842.1 1539.7 846V846.4C1539.8 847.5 1539.8 848.6 1539.9 849.7V853.4Z" fill="#0E538C"/>
<path d="M1563.5 753.5C1563.4 753.9 1563.3 754.3 1563.1 754.7C1559.5 768.9 1549.6 802.8 1542.7 823.2V823.4C1541.1 828.1 1539.7 832.1 1538.5 835C1537.9 836.4 1536.4 837.7 1534.5 838.5C1533.6 838.9 1532.6 839.2 1531.5 839.5C1523.7 841.1 1512.4 837.5 1512.4 822.1C1512.4 820.4 1512.5 818.5 1512.8 816.6C1514.6 804.2 1521.7 735.6 1522.6 729C1523.6 722.4 1525.4 712.8 1528.9 711.8C1546.7 706.9 1569.6 728.9 1563.5 753.5Z" fill="#0E538C"/>
<path d="M1539.2 829.3L1542.7 823.5V823.6C1542.3 825 1539.7 835.1 1539.8 846.2V846.6C1539.8 847.7 1539.9 848.8 1540 849.9V850.1C1540.1 851.9 1540.1 853 1540 853.5V853.6C1539.3 856.5 1535.4 842.1 1534.5 838.7C1534.4 838.3 1534.3 838 1534.3 838L1537.8 831.8L1539.2 829.3Z" fill="#5146AF"/>
<path d="M1563.1 754.8C1559.5 769 1549.6 802.9 1542.7 823.3V823.5C1542.3 824.9 1539.7 835 1539.8 846.1V846.5C1539.9 847.6 1539.9 848.7 1540 849.8V853.5C1540 887 1528.4 929.8 1524.3 954C1523.9 954 1523.4 954 1523 953.9C1523 953.9 1527.7 914.1 1533 886.7C1537.1 865.5 1533.4 846.9 1531.4 839.5C1530.8 837.3 1530.4 836.1 1530.4 836.1L1535.5 824.3C1541.3 808.9 1543.7 772.3 1543.7 772.3C1533.7 745.8 1534.1 713.3 1534.1 713.3L1544 715.3L1560.5 737.9L1563.1 754.8ZM1593.8 827.1C1582.7 815.2 1565.9 819.5 1572.5 837.2C1579.6 856.2 1601.8 909.1 1613.3 946.6L1614.1 949C1614.1 949 1619.7 948.4 1628.8 945.2C1623.7 921 1621.5 879.8 1609.7 850.5C1605.8 841 1599.6 833.2 1593.8 827.1Z" fill="#0E538C"/>
<path d="M1534 713.4C1533.4 685.8 1566.6 706.2 1582.4 716.3C1589.1 720.6 1591.1 728.4 1591.6 735.6C1592.1 742.9 1596.3 817.5 1597.2 831.1C1599.3 861.8 1573.7 843.5 1571.7 834.9C1566.8 813.3 1534.3 728.5 1534 713.4Z" fill="#0E538C"/>
<path d="M1511.2 497.9C1511.2 497.9 1505.5 551.6 1546 540.2C1548.1 540.5 1560.4 537.4 1562.3 521.1C1564.1 504.8 1554.8 487.6 1554 487C1553.2 486.5 1527.7 485.7 1526.7 485.7C1525.6 485.8 1511.2 497.9 1511.2 497.9Z" fill="#FFE3CA"/>
<path d="M1545.2 511.6C1545.2 511.6 1539 508.8 1540.6 500.3C1542.1 491.8 1541.1 491.3 1534.9 494.9C1528.7 498.5 1497.5 515.5 1502.9 475.8C1506.5 477.9 1517.9 477.6 1520.2 472.7C1522.5 467.8 1549.1 454.4 1559.2 474C1566.2 474.3 1574.2 482.3 1573.4 498C1572.6 513.7 1566.9 534 1561 535.1C1555.1 536.2 1552 531.5 1552.2 524C1552.5 520.1 1563.8 515 1555.6 503.4C1551.9 499.5 1541.9 502.8 1545.2 511.6Z" fill="#0B4870"/>
<path d="M1512.3 614.3C1512.3 614.3 1522.6 622.3 1530.1 622.9L1526.2 578.1L1522 589.1L1512.3 614.3Z" fill="#68E1FD"/>
<path d="M1520.1 685C1520.1 685 1520.6 685.2 1521.4 685.5C1527.3 687.7 1550.8 701.5 1582.5 685.5C1586.4 683.5 1588.5 677.7 1588.5 677.7C1588.5 677.7 1583.3 666 1582.3 631.9C1581.3 597.9 1582.2 594.1 1576.5 577.2C1571.5 562.5 1555.2 544.3 1555.2 544.3C1555.2 544.3 1540 553.8 1534.5 553.8C1527.6 570.6 1520.4 592.4 1523 608.2C1524.7 618.7 1522.9 649.3 1521.5 668.5C1520.7 678.3 1520.1 685 1520.1 685Z" fill="#68E1FD"/>
<path d="M1563.1 618.2C1563.1 618.2 1554.3 657 1545.2 669.2C1537.6 679.5 1487.9 689.8 1484.3 693C1478.4 698 1474.3 691.3 1467.9 693.8C1465.7 694.6 1466.6 695.7 1463.8 695.9C1461 696.1 1457.1 691.5 1466.4 685.8C1471.6 683.7 1480.1 685 1480.5 684.8C1480.9 684.5 1528 661.8 1530.1 657.4C1532.2 653 1541.2 613.3 1541.2 613.3L1563.1 618.2Z" fill="#FFE3CA"/>
<path d="M1565.7 580.3C1565.7 580.3 1570.4 599.4 1565.7 622.8C1546.5 623.8 1531.8 618.7 1531.8 618.7L1537.9 587.4" fill="#68E1FD"/>
<path d="M1429.8 743.7L1464 746.3L1466 747.1L1431.7 744.5L1429.8 743.7Z" fill="#EE5A28"/>
<path d="M1432 743.1L1466.3 745.7L1466 747.1L1431.7 744.5L1432 743.1Z" fill="#FFAB01"/>
<path d="M1432 743.1L1466.3 745.7L1478 750.5L1443.7 747.9L1432 743.1Z" fill="#FFCA10"/>
<path d="M1447.4 715.7C1453.6 716.2 1461.9 716.8 1468 717.3C1464.3 717.1 1460.9 716.8 1455.6 716.8C1450.4 716.8 1445.9 717 1443.2 717.2C1441.6 717.3 1436.8 717.6 1430.7 718.5C1425.3 719.2 1422 719.9 1418.3 720.7C1427.6 716.7 1437.4 715 1447.4 715.7Z" fill="#FFC910"/>
<path d="M1466.2 720.2C1422.7 702.4 1375.4 736.9 1360.7 797.2C1345.9 857.5 1369.3 920.8 1412.8 938.6C1456.3 956.4 1503.6 921.9 1518.3 861.6C1533.1 801.4 1509.7 738 1466.2 720.2Z" fill="#68E1FD"/>
<g opacity="0.26">
<path d="M1365.9 802C1380.7 741.7 1427.9 707.2 1471.4 725C1478 727.7 1484.2 731.5 1489.8 736.1C1482.8 729.2 1474.9 723.8 1466.2 720.2C1422.7 702.4 1375.4 736.9 1360.7 797.2C1348.2 848.3 1363.1 901.6 1394.4 927.5C1366.7 900.3 1354.1 850.2 1365.9 802Z" fill="#231F20"/>
</g>
<path d="M1447.4 715.7C1458.8 716.6 1470.2 717.4 1481.7 718.3C1488 718.8 1494.3 720.3 1500.6 722.8L1466.3 720.2C1460 717.7 1453.6 716.2 1447.4 715.7Z" fill="#FFAB01"/>
<path d="M1471.7 697.6C1524.3 719.1 1552.4 795.5 1534.6 868.4C1516.8 941.2 1459.7 982.8 1407.2 961.3C1354.6 939.8 1326.5 863.4 1344.3 790.5C1362.1 717.7 1419.2 676.1 1471.7 697.6ZM1412.8 938.7C1456.3 956.5 1503.6 922 1518.3 861.7C1533.1 801.4 1509.7 738.1 1466.2 720.2C1422.7 702.4 1375.4 736.9 1360.7 797.2C1345.9 857.5 1369.2 920.9 1412.8 938.7Z" fill="#68E1FD"/>
<g opacity="0.26">
<path d="M1470.4 696.4C1523 717.9 1551.1 794.3 1533.3 867.2C1515.5 940 1458.4 981.6 1405.9 960.1C1353.3 938.6 1325.2 862.2 1343 789.3C1360.8 716.5 1417.8 674.9 1470.4 696.4ZM1411.4 937.4C1454.9 955.2 1502.2 920.7 1516.9 860.4C1531.7 800.1 1508.3 736.8 1464.8 718.9C1421.3 701.1 1374 735.6 1359.3 795.9C1344.5 856.3 1367.9 919.6 1411.4 937.4Z" fill="white"/>
</g>
<path d="M1449 692.2C1460.4 693.1 1471.8 693.9 1483.3 694.8C1490.9 695.4 1498.5 697.2 1506.1 700.3L1471.8 697.7C1464.2 694.5 1456.6 692.7 1449 692.2Z" fill="#68E1FD"/>
<path d="M1464.3 969.4C1452.9 968.5 1441.5 967.7 1430 966.8C1475.4 970.3 1519.4 930.8 1534.7 868.4C1552.5 795.6 1524.3 719.1 1471.8 697.6L1506.1 700.2C1558.7 721.7 1586.8 798.1 1569 871C1553.7 933.4 1509.6 972.8 1464.3 969.4Z" fill="#68E1FD"/>
<path opacity="0.22" d="M1553.1 912.7C1560 900.4 1565.5 886.4 1569.3 871C1577.6 837 1575.9 802.2 1566.4 772.5L1533.2 773.5C1541.8 802.3 1543 835.7 1535 868.4C1530.9 885.4 1524.6 900.6 1516.7 913.8L1553.1 912.7Z" fill="#231F20"/>
<g opacity="0.06">
<path d="M1463.6 750.9L1459.1 769.1C1464.1 772.4 1467.6 777.5 1469.5 784.3C1471.4 791.1 1471.4 799 1469.7 807.8L1457.8 802.9C1458.8 797.9 1458.5 793.5 1457 789.7C1455.5 785.9 1453 783.3 1449.5 781.9C1445.7 780.4 1442.4 780.7 1439.3 783C1436.3 785.3 1434.1 789.1 1432.8 794.4C1432.3 796.4 1432.1 798.2 1432.1 800C1432.1 801.8 1432.4 803.5 1432.8 805.1C1433.8 808.5 1436.8 812.1 1441.8 815.9C1444.8 818.2 1447 820.1 1448.5 821.7C1453.7 827 1457.1 833.1 1458.8 840.1C1460.5 847 1460.3 854.4 1458.4 862.3C1456 872.3 1452 880 1446.6 885.5C1441.2 890.9 1435.3 893 1429.1 891.7L1423.7 913.6L1412.6 909.1L1417.8 888C1411.5 884 1407.2 878 1404.9 869.8C1402.6 861.7 1402.7 852.5 1405.1 842.4L1416.6 847.1C1415.2 854 1415.3 859.7 1417 864.1C1418.7 868.6 1421.9 871.7 1426.6 873.7C1430.9 875.5 1434.8 875.1 1438.3 872.5C1441.8 869.9 1444.3 865.5 1445.8 859.4C1446.3 857.2 1446.7 855.2 1446.8 853.2C1446.9 851.2 1446.9 849.5 1446.6 847.9C1445.7 842.7 1442.5 837.9 1437 833.4C1436.1 832.7 1435.4 832.1 1435 831.7C1428.1 825.9 1423.5 819.7 1421.2 813.1C1418.9 806.4 1418.8 799 1420.8 790.6C1423 781.5 1426.6 774.6 1431.5 770C1436.4 765.3 1442 763.5 1448.3 764.4L1452.7 746.3L1463.6 750.9Z" fill="#231F20"/>
</g>
<path opacity="0.4" d="M1457.1 749.1L1452.6 767.3C1457.6 770.6 1461.1 775.7 1463 782.5C1464.9 789.3 1464.9 797.2 1463.2 806L1451.3 801.1C1452.3 796.1 1452 791.7 1450.5 787.9C1449 784.1 1446.5 781.5 1443 780.1C1439.3 778.6 1435.9 778.9 1432.8 781.2C1429.8 783.5 1427.6 787.3 1426.3 792.6C1425.8 794.6 1425.6 796.4 1425.6 798.2C1425.6 800 1425.8 801.7 1426.3 803.3C1427.3 806.7 1430.3 810.3 1435.3 814.1C1438.3 816.4 1440.5 818.3 1442 819.9C1447.2 825.2 1450.6 831.3 1452.3 838.3C1454 845.2 1453.8 852.6 1451.9 860.5C1449.5 870.5 1445.5 878.2 1440.1 883.7C1434.7 889.1 1428.8 891.2 1422.6 889.9L1417.2 911.8L1406.1 907.3L1411.3 886.2C1405 882.2 1400.6 876.2 1398.4 868C1396.1 859.9 1396.2 850.7 1398.6 840.6L1410.1 845.3C1408.7 852.2 1408.8 857.9 1410.4 862.3C1412.1 866.8 1415.3 869.9 1420 871.9C1424.3 873.7 1428.2 873.3 1431.7 870.7C1435.2 868.1 1437.7 863.7 1439.1 857.6C1439.6 855.4 1440 853.4 1440.1 851.4C1440.2 849.4 1440.2 847.7 1439.9 846.1C1439 840.9 1435.8 836.1 1430.3 831.6C1429.4 830.9 1428.7 830.3 1428.3 829.9C1421.4 824.1 1416.8 817.9 1414.5 811.3C1412.2 804.6 1412.1 797.2 1414.1 788.8C1416.3 779.7 1419.9 772.8 1424.8 768.2C1429.7 763.5 1435.3 761.7 1441.6 762.6L1446 744.5L1457.1 749.1Z" fill="white"/>
</svg>
